# This file uses centimeters as units for non-parametric coordinates.

mtllib uppercounter3.mtl
g default
v 2.711341 5.560693 4.767652
v 2.711341 5.418973 6.826967
v 2.711341 3.583328 4.767652
v 2.711341 3.583328 6.826967
v 1.709821 3.583328 6.708345
v 1.709821 5.418973 6.708345
v 2.711341 5.529834 6.708345
v 2.712861 5.418973 6.708345
v 2.712861 3.583328 6.708345
v 2.711341 3.461996 6.708345
v 1.710284 3.583328 4.911836
v 1.710284 5.560693 4.911836
v 2.711341 5.671555 4.911836
v 2.712398 5.560693 4.911836
v 2.712398 3.583328 4.911836
v 2.711341 3.461996 4.911836
v 1.710059 5.491606 5.787633
v 1.710053 3.583328 5.810091
v 1.710011 5.477164 5.970686
v 1.710014 3.583328 5.960162
v 1.616370 5.477164 5.970660
v 1.616372 3.583328 5.960140
v 1.616180 3.583328 6.708321
v 1.616180 5.418973 6.708321
v 1.616643 3.583328 4.911811
v 1.616643 5.560693 4.911811
v 1.616411 3.583328 5.810065
v 1.616417 5.491606 5.787611
v 1.710083 5.498983 5.694111
v 1.710117 5.509561 5.560023
v 1.710106 3.583328 5.604595
v 1.616436 3.922916 5.714860
v 1.616467 3.965158 5.592991
v 1.616435 3.687049 5.718597
v 1.616465 3.686166 5.599446
v 1.709999 3.583328 6.019108
v 1.616349 3.916910 6.050418
v 1.616315 3.974491 6.183191
v 1.616350 3.673639 6.046366
v 1.616317 3.679633 6.176735
v 1.582155 3.922769 5.715102
v 1.582204 3.965300 5.593330
v 1.581996 3.686294 5.599125
v 1.581980 3.686894 5.718281
v 1.582052 3.917070 6.050652
v 1.582075 3.974337 6.183560
v 1.581872 3.673809 6.046026
v 1.581858 3.679496 6.176407
v 1.722994 3.502645 6.745154
v 1.752772 3.472863 6.745154
v 1.792960 3.461996 6.745350
v 1.793359 3.472931 6.786158
v 1.793359 3.502807 6.816033
v 1.792960 3.543615 6.826967
v 1.752803 3.543820 6.816105
v 1.723030 3.543820 6.786328
v 1.711341 3.543615 6.745350
v 2.711341 3.461996 6.745350
v 2.711341 3.543615 6.826967
v 2.711341 3.502806 6.816034
v 2.711341 3.472931 6.786160
v 1.723037 5.448007 6.786328
v 1.752810 5.448007 6.816106
v 1.792960 5.448216 6.826967
v 1.793448 5.489023 6.816034
v 1.793448 5.518897 6.786158
v 1.792960 5.529834 6.745350
v 1.752998 5.518990 6.745084
v 1.723254 5.489240 6.745084
v 1.711341 5.448216 6.745350
v 2.711341 5.448216 6.826967
v 2.711341 5.529834 6.745350
v 2.711341 5.518899 6.786160
v 2.711341 5.489024 6.816034
v 1.722834 5.630871 4.849425
v 1.752634 5.660674 4.849425
v 1.792960 5.671555 4.849272
v 1.793201 5.660619 4.808461
v 1.793201 5.630744 4.778587
v 1.792960 5.589936 4.767652
v 1.752450 5.589841 4.778555
v 1.722622 5.589841 4.808383
v 1.711341 5.589936 4.849272
v 2.711341 5.671555 4.849272
v 2.711341 5.589936 4.767652
v 2.711341 5.630745 4.778588
v 2.711341 5.660620 4.808461
v 1.722585 3.543700 4.808392
v 1.752418 3.543700 4.778558
v 1.792960 3.543615 4.767652
v 1.793156 3.502806 4.778588
v 1.793156 3.472931 4.808462
v 1.792960 3.461996 4.849272
v 1.752506 3.472891 4.849383
v 1.722686 3.502713 4.849383
v 1.711341 3.543615 4.849272
v 2.711341 3.543615 4.767652
v 2.711341 3.461996 4.849272
v 2.711341 3.472931 4.808461
v 2.711341 3.502806 4.778588
v 1.710302 3.583328 6.745875
v 1.721654 3.583328 6.786501
v 1.751673 3.583328 6.816137
v 1.792442 3.583328 6.826967
v 1.710227 5.448778 6.705156
v 1.721610 5.489391 6.706754
v 1.751639 5.519010 6.707919
v 1.792405 5.529834 6.708345
v 1.792662 5.560693 4.767652
v 1.751876 5.560693 4.778528
v 1.721919 5.560693 4.808267
v 1.710745 5.560693 4.848971
v 1.710633 3.543259 4.911836
v 1.721852 3.502573 4.911836
v 1.751825 3.472861 4.911836
v 1.792607 3.461996 4.911836
v 1.792442 5.418973 6.826967
v 1.751673 5.418973 6.816137
v 1.721654 5.418973 6.786501
v 1.710302 5.418973 6.745875
v 1.792662 3.583328 4.767652
v 1.751876 3.583328 4.778528
v 1.721919 3.583328 4.808267
v 1.710745 3.583328 4.848971
v 1.792453 3.461996 6.708345
v 1.751683 3.472829 6.708345
v 1.721668 3.502471 6.708345
v 1.710325 3.543102 6.708345
v 1.710590 5.590314 4.908634
v 1.721826 5.630992 4.910237
v 1.751805 5.660695 4.911408
v 1.792585 5.671555 4.911836
v 1.729915 3.508285 6.780690
v 1.758954 3.479039 6.780566
v 1.758965 3.508405 6.809930
v 1.730268 5.483602 6.780679
v 1.759250 5.483443 6.809927
v 1.759289 5.512815 6.780535
v 1.729301 5.625275 4.814000
v 1.758471 5.654513 4.814060
v 1.758407 5.625190 4.784720
v 1.729094 3.508307 4.813995
v 1.758252 3.508368 4.784720
v 1.758282 3.479050 4.814045
vt 0.536614 0.368568
vt 0.013423 0.085728
vt 0.161410 0.303358
vt 0.413334 0.116609
vt 0.563787 0.670652
vt 0.765526 0.256562
vt 0.651081 0.022665
vt 0.369219 0.520726
vt 0.099035 0.558791
vt 0.021130 0.052505
vt 0.026860 0.018942
vt 0.134432 0.327218
vt 0.333302 0.639909
vt 0.203112 0.415412
vt 0.181422 0.327019
vt 0.348714 0.502914
vt 0.265992 0.572830
vt 0.020291 0.570046
vt 0.054313 0.017101
vt 0.144909 0.006355
vt 0.820640 0.005079
vt 0.959200 0.023932
vt 0.560948 0.459033
vt 0.747311 0.685190
vt 0.162435 0.718351
vt 0.139219 0.331552
vt 0.386316 0.731358
vt 0.004897 0.551910
vt 0.040133 0.312796
vt 0.370769 0.730807
vt 0.263155 0.718807
vt 0.262526 0.967142
vt 0.019119 0.985203
vt 0.020981 0.717635
vt 0.293107 0.111485
vt 0.779078 0.310366
vt 0.214393 0.038515
vt 0.758330 0.676094
vt 0.571992 0.449890
vt 0.915689 0.318091
vt 0.551786 0.447916
vt 0.538651 0.431977
vt 0.164734 0.044185
vt 0.171886 0.048373
vt 0.162937 0.040109
vt 0.177090 0.047441
vt 0.145237 0.010822
vt 0.056047 0.022083
vt 0.009268 0.005079
vt 0.239795 0.042143
vt 0.023175 0.048681
vt 0.244888 0.041175
vt 0.008705 0.009409
vt 0.028459 0.023876
vt 0.268197 0.696430
vt 0.268010 0.701976
vt 0.263112 0.701968
vt 0.263200 0.696267
vt 0.267947 0.707625
vt 0.263074 0.707669
vt 0.268066 0.713350
vt 0.263104 0.713371
vt 0.638928 0.574811
vt 0.643436 0.577915
vt 0.572714 0.676690
vt 0.568118 0.673580
vt 0.648189 0.580699
vt 0.276737 0.573295
vt 0.777807 0.269716
vt 0.273796 0.712992
vt 0.641516 0.562987
vt 0.268234 0.718746
vt 0.642071 0.570603
vt 0.638146 0.567339
vt 0.634818 0.571740
vt 0.444887 0.428896
vt 0.447777 0.424478
vt 0.450786 0.426509
vt 0.447654 0.431068
vt 0.450147 0.419600
vt 0.273312 0.967181
vt 0.267502 0.971069
vt 0.267606 0.967140
vt 0.433855 0.418396
vt 0.437291 0.422160
vt 0.357110 0.510247
vt 0.352628 0.506339
vt 0.440972 0.425663
vt 0.361603 0.514145
vt 0.664374 0.011542
vt 0.267611 0.976813
vt 0.439270 0.407807
vt 0.262088 0.971176
vt 0.437944 0.415121
vt 0.435058 0.411360
vt 0.430921 0.415017
vt 0.258097 0.232921
vt 0.260940 0.237089
vt 0.167931 0.311127
vt 0.164069 0.306534
vt 0.264038 0.241063
vt 0.171803 0.315705
vt 0.267385 0.244846
vt 0.398450 0.106383
vt 0.110023 0.016527
vt 0.114407 0.013558
vt 0.117405 0.017694
vt 0.112839 0.020811
vt 0.118593 0.010117
vt 0.006770 0.717321
vt 0.012693 0.712133
vt 0.012477 0.717476
vt 0.012765 0.695300
vt 0.007061 0.695609
vt 0.004897 0.071812
vt 0.011793 0.570281
vt 0.107186 0.011848
vt 0.007782 0.076537
vt 0.520717 0.382618
vt 0.012872 0.706470
vt 0.021165 0.706560
vt 0.021091 0.712266
vt 0.012877 0.700851
vt 0.021205 0.700853
vt 0.021213 0.695145
vt 0.272473 0.250328
vt 0.010610 0.985116
vt 0.018659 0.989209
vt 0.010645 0.989049
vt 0.256188 0.229982
vt 0.276370 0.246393
vt 0.280239 0.242454
vt 0.004926 0.989103
vt 0.265636 0.224320
vt 0.262682 0.230264
vt 0.260881 0.227090
vt 0.270947 0.240822
vt 0.274006 0.236448
vt 0.649248 0.570262
vt 0.650215 0.576053
vt 0.645386 0.573913
vt 0.445270 0.417158
vt 0.443803 0.422482
vt 0.440189 0.419040
vt 0.269640 0.233261
vt 0.267369 0.238286
vt 0.264334 0.234400
vt 0.115142 0.006371
vt 0.111323 0.010087
vt 0.008005 0.700673
vt 0.007927 0.706611
vt 0.109352 0.005079
vt 0.104629 0.006995
vt 0.006993 0.711719
vt 0.005562 0.994058
vt 0.267650 0.228150
vt 0.010500 0.994785
vt 0.272590 0.976145
vt 0.442565 0.412339
vt 0.273253 0.971168
vt 0.273888 0.696807
vt 0.272894 0.701819
vt 0.272920 0.707795
vt 0.645697 0.566586
vt 0.018830 0.994921
vt 0.004897 0.985102
vt 0.121923 0.014526
vt 0.273941 0.718636
vt 0.453779 0.421876
vt 0.262338 0.976881
vt 0.010684 0.081270
vt 0.524655 0.387136
vt 0.006074 0.570439
vt 0.175677 0.320266
vt 0.393932 0.110321
vt 0.391988 0.115990
vt 0.393138 0.121872
vt 0.366102 0.518040
vt 0.660437 0.007024
vt 0.654767 0.005079
vt 0.648885 0.006230
vt 0.577282 0.679790
vt 0.784269 0.260108
vt 0.783118 0.254227
vt 0.394962 0.125598
vt 0.644170 0.008537
vt 0.780642 0.249166
vt 0.406422 0.102483
vt 0.666197 0.015268
vt 0.518241 0.377557
vt 0.530324 0.389080
vt 0.536206 0.387929
vt 0.271014 0.573046
vt 0.782325 0.265778
vt 0.544178 0.384028
vt 0.773091 0.272023
vt 0.114411 0.718124
vt 0.282048 0.120606
vt 0.486223 0.345814
vt 0.106999 0.978686
vt 0.475155 0.354926
vt 0.125152 0.977339
vt 0.205403 0.005079
vt 0.142166 0.718258
vt 0.194324 0.014163
vt 0.137811 0.976400
vt 0.150638 0.324933
vt 0.170401 0.718388
vt 0.004897 0.099954
vt 0.374950 0.738015
vt 0.016278 0.093359
vt 0.162595 0.974561
vt 0.321887 0.646520
vt 0.191699 0.422040
vt 0.160666 0.009544
vt 0.090093 0.010036
vt 0.160337 0.005079
vt 0.147660 0.046999
vt 0.169361 0.005079
vt 0.924622 0.035394
vt 0.149457 0.051072
vt 0.937468 0.074372
vt 0.164126 0.006018
vt 0.917764 0.078334
vt 0.943001 0.038033
vt 0.088368 0.005079
vt 0.070615 0.009982
vt 0.025113 0.011384
vt 0.025676 0.007057
vt 0.006945 0.040169
vt 0.237878 0.005079
vt 0.049201 0.325839
vt 0.060659 0.366433
vt 0.004897 0.044000
vt 0.232759 0.006052
vt 0.045019 0.356608
vt 0.065532 0.329110
vt 0.069026 0.005079
vn 1.000000 -0.000606 -0.000777
vn 0.999974 -0.000253 -0.007158
vn 0.999974 0.000254 -0.007175
vn 1.000000 0.000666 -0.000750
vn 0.999922 -0.000391 0.012505
vn 1.000000 -0.000621 0.000509
vn 1.000000 0.000570 0.000522
vn 0.999921 0.000393 0.012538
vn -1.000000 0.000000 -0.000258
vn -1.000000 0.000000 -0.000258
vn -1.000000 0.000000 -0.000258
vn -1.000000 0.000000 -0.000258
vn 0.999937 0.011180 0.000445
vn 0.999934 0.011427 0.001129
vn 0.999946 -0.010425 0.000278
vn 0.999948 -0.010227 -0.000394
vn -1.000000 -0.000001 -0.000258
vn -1.000000 -0.000000 -0.000258
vn -1.000000 0.000000 -0.000258
vn -1.000000 -0.000001 -0.000258
vn -0.999995 0.003158 -0.000001
vn -0.999995 -0.003309 -0.000244
vn -0.999994 -0.003317 -0.000244
vn -0.999996 0.002920 -0.000020
vn 0.000258 0.005556 -0.999985
vn 0.000258 0.005556 -0.999985
vn 0.000258 0.005556 -0.999985
vn 0.000258 0.005556 -0.999985
vn 0.000000 -1.000000 -0.000000
vn 0.000000 -1.000000 -0.000000
vn 0.000000 -1.000000 -0.000000
vn 0.000000 -1.000000 -0.000000
vn 0.000000 -1.000000 -0.000000
vn -0.000255 0.000000 1.000000
vn -0.000255 0.000000 1.000000
vn -0.000255 0.000000 1.000000
vn -0.000255 0.000000 1.000000
vn -0.000021 0.996903 0.078642
vn -0.000021 0.996903 0.078642
vn -0.000021 0.996903 0.078642
vn -0.000021 0.996903 0.078642
vn 0.000278 0.000000 -1.000000
vn 0.000278 0.000000 -1.000000
vn 0.000278 0.000000 -1.000000
vn 0.000278 0.000000 -1.000000
vn 0.000000 -1.000000 0.000000
vn 0.000000 -1.000000 0.000000
vn 0.000000 -1.000000 0.000000
vn 0.000000 -1.000000 0.000000
vn 0.000000 -1.000000 0.000000
vn -0.000256 0.011767 0.999931
vn -0.000256 0.011767 0.999931
vn -0.000256 0.011767 0.999931
vn -0.000256 0.011767 0.999931
vn -0.000018 0.996903 0.078640
vn -0.000018 0.996903 0.078640
vn -0.000018 0.996903 0.078640
vn -0.000018 0.996903 0.078640
vn -0.000018 0.996903 0.078640
vn -0.000018 0.996903 0.078640
vn -1.000000 -0.000000 -0.000258
vn -1.000000 -0.000000 -0.000258
vn -1.000000 -0.000000 -0.000258
vn -1.000000 0.000000 -0.000258
vn -1.000000 0.000741 -0.000140
vn -1.000000 0.000741 -0.000140
vn -1.000000 0.000741 -0.000140
vn -1.000000 0.000741 -0.000140
vn -1.000000 -0.000000 -0.000258
vn -1.000000 -0.000000 -0.000258
vn -1.000000 -0.000000 -0.000258
vn -1.000000 -0.000000 -0.000258
vn -1.000000 0.000741 -0.000141
vn -1.000000 0.000741 -0.000141
vn -1.000000 0.000741 -0.000141
vn -1.000000 0.000741 -0.000141
vn 0.002723 0.944459 0.328618
vn 0.002723 0.944459 0.328618
vn 0.002723 0.944459 0.328618
vn 0.002723 0.944459 0.328618
vn -0.000344 -0.021950 -0.999759
vn -0.000344 -0.021950 -0.999759
vn -0.000344 -0.021950 -0.999759
vn -0.000344 -0.021950 -0.999759
vn 0.000337 -0.999981 0.006223
vn 0.000337 -0.999981 0.006223
vn 0.000337 -0.999981 0.006223
vn 0.000337 -0.999981 0.006223
vn -0.001151 0.014660 0.999892
vn -0.001151 0.014660 0.999892
vn -0.001151 0.014660 0.999892
vn -0.001151 0.014660 0.999892
vn -0.003393 0.917904 -0.396788
vn -0.003393 0.917904 -0.396788
vn -0.003393 0.917904 -0.396788
vn -0.003393 0.917904 -0.396788
vn 0.001624 0.017831 -0.999840
vn 0.001624 0.017831 -0.999840
vn 0.001624 0.017831 -0.999840
vn 0.001624 0.017831 -0.999840
vn -0.000916 -0.998998 0.044755
vn -0.000916 -0.998998 0.044755
vn -0.000916 -0.998998 0.044755
vn -0.000916 -0.998998 0.044755
vn 0.000652 -0.023072 0.999734
vn 0.000652 -0.023072 0.999734
vn 0.000652 -0.023072 0.999734
vn 0.000652 -0.023072 0.999734
vn -0.009750 -0.990455 0.137492
vn -0.495248 -0.859359 0.127404
vn -0.497059 -0.867717 0.000265
vn -0.011310 -0.999936 0.000004
vn -0.855103 -0.499610 0.138526
vn -0.862490 -0.506074 0.000482
vn -0.978939 -0.141673 0.146992
vn -0.989645 -0.143534 0.000366
vn -0.009798 -0.132917 0.991079
vn -0.008562 -0.499230 0.866427
vn -0.000000 -0.499969 0.866044
vn 0.000000 -0.134526 0.990910
vn -0.008562 -0.707071 0.707091
vn -0.000002 -0.707098 0.707116
vn -0.007981 -0.966071 0.258154
vn -0.000000 -0.990274 0.139131
vn -0.000000 -0.965923 0.258832
vn -0.855445 -0.133632 0.500356
vn -0.861760 -0.000610 0.507316
vn -0.988713 -0.000554 0.149819
vn -0.495423 -0.122849 0.859921
vn -0.496420 -0.000329 0.868082
vn -0.011288 -0.000005 0.999936
vn -0.009581 0.152355 0.988279
vn -0.494972 0.144993 0.856726
vn -0.496404 0.000332 0.868092
vn -0.011288 0.000005 0.999936
vn -0.852447 0.159067 0.498028
vn -0.861757 0.000614 0.507320
vn -0.975391 0.166999 0.143958
vn -0.988724 0.000562 0.149752
vn -0.009767 0.990470 0.137381
vn -0.008549 0.866498 0.499108
vn -0.000002 0.866036 0.499981
vn -0.000001 0.990273 0.139135
vn -0.008553 0.499096 0.866505
vn -0.000002 0.499973 0.866041
vn -0.000000 0.154184 0.988042
vn -0.855211 0.499348 0.138800
vn -0.865031 0.500185 0.039212
vn -0.987718 0.155752 0.012412
vn -0.496870 0.858269 0.128432
vn -0.499656 0.863622 0.067080
vn -0.011373 0.996960 0.077079
vn -0.009609 0.152774 -0.988214
vn -0.008581 0.499476 -0.866285
vn -0.000000 0.499982 -0.866036
vn 0.000000 0.154221 -0.988036
vn -0.008550 0.707071 -0.707091
vn -0.000000 0.707088 -0.707125
vn -0.008017 0.966091 -0.258077
vn -0.010136 0.994523 -0.104027
vn -0.000000 0.994454 -0.105174
vn -0.000000 0.965926 -0.258817
vn -0.009840 -0.133255 -0.991033
vn -0.495161 -0.117046 -0.860881
vn -0.497953 -0.000155 -0.867204
vn -0.011337 -0.000003 -0.999936
vn -0.858803 -0.122769 -0.497378
vn -0.863591 -0.000294 -0.504194
vn -0.985307 -0.135794 -0.103588
vn -0.993746 -0.000275 -0.111669
vn -0.010167 -0.994519 -0.104063
vn -0.008583 -0.866237 -0.499560
vn -0.000000 -0.866029 -0.499994
vn -0.000000 -0.994453 -0.105179
vn -0.008542 -0.707072 -0.707090
vn 0.000000 -0.707094 -0.707120
vn -0.008044 -0.258093 -0.966087
vn -0.000000 -0.134558 -0.990906
vn -0.000001 -0.258843 -0.965920
vn -0.860625 -0.500391 -0.094516
vn -0.862520 -0.506022 -0.000511
vn -0.989663 -0.143413 -0.000557
vn -0.496461 -0.863399 -0.089824
vn -0.497052 -0.867721 -0.000267
vn -0.011308 -0.999936 -0.000005
vn 0.000000 0.000000 1.000000
vn -0.011229 0.997044 0.076012
vn 0.000000 0.997107 0.076012
vn 0.000000 0.000000 -1.000000
vn 0.000000 -1.000000 -0.000000
vn -0.999981 -0.004001 -0.004776
vn -0.993743 0.000265 -0.111691
vn -0.999981 0.003990 -0.004780
vn -0.984908 0.172626 0.012516
vn -0.981961 0.157090 -0.105244
vn 0.000000 0.000000 -1.000000
vn -0.011337 0.000003 -0.999936
vn 0.000000 0.000000 1.000000
vn -0.999965 -0.005580 0.006297
vn -0.999955 0.005090 0.008063
vn 0.000000 0.997026 0.077065
vn 0.000000 -1.000000 0.000000
vn -0.999944 -0.010624 -0.000215
vn -0.999944 -0.010624 -0.000215
vn -0.999927 0.012058 0.000721
vn -0.999927 0.012058 0.000721
vn 0.999949 -0.007081 0.007244
vn 0.999949 -0.007081 0.007244
vn 0.999949 -0.007081 0.007244
vn 0.999949 -0.007081 0.007244
vn 0.999942 0.007847 0.007335
vn 0.999942 0.007847 0.007335
vn 0.999942 0.007847 0.007335
vn 0.999942 0.007847 0.007335
vn 0.999978 0.005321 -0.004091
vn 0.999978 0.005321 -0.004091
vn 0.999977 0.005321 -0.004091
vn 0.999977 0.005321 -0.004091
vn 0.999980 -0.004814 -0.004051
vn 0.999980 -0.004814 -0.004051
vn 0.999980 -0.004814 -0.004051
vn 0.999980 -0.004814 -0.004051
vn -0.494016 0.866958 0.065820
vn -0.859375 0.509907 0.038322
vn -0.856360 0.144960 -0.495615
vn -0.863588 0.000304 -0.504199
vn -0.494256 0.137342 -0.858399
vn -0.497948 0.000162 -0.867207
vn -0.495578 0.863760 -0.091225
vn -0.858735 0.503012 -0.097737
vn -0.802199 -0.421948 0.422418
vn -0.502890 -0.704083 0.501367
vn -0.232922 -0.944386 0.232126
vn -0.502892 -0.501085 0.704282
vn -0.232972 -0.232041 0.944395
vn -0.800302 0.425390 0.422565
vn -0.503374 0.502777 0.702731
vn -0.233600 0.233103 0.943978
vn -0.503659 0.703792 0.501003
vn -0.234036 0.943990 0.232615
vn -0.805127 0.420821 -0.417948
vn -0.501563 0.706301 -0.499573
vn -0.231568 0.945093 -0.230597
vn -0.501533 0.501252 -0.705132
vn -0.231118 0.231030 -0.945098
vn -0.806105 -0.419126 -0.417766
vn -0.501060 -0.500562 -0.705958
vn -0.230723 -0.230547 -0.945312
vn -0.501086 -0.706501 -0.499769
vn -0.230922 -0.945318 -0.230322
s 1
g pCube8
usemtl initialShadingGroup
f 15/1/1 3/190/2 1/185/3 14/4/4
f 4/187/5 9/6/6 8/7/7 2/189/8
s 3
f 24/9/9 38/233/10 40/237/11 23/12/12
s 1
f 8/7/7 14/4/4 13/188/13 7/186/14
f 9/6/6 15/1/1 14/4/4 8/7/7
f 10/196/15 16/195/16 15/1/1 9/6/6
s 4
f 34/225/17 35/220/18 25/21/19 27/22/20
s 5
f 17/206/21 18/204/22 20/25/23 19/212/24
s off
f 19/26/25 20/209/26 22/211/27 21/207/28
f 36/30/29 5/213/30 23/13/31 22/27/32 20/210/33
f 5/213/34 6/214/35 24/14/36 23/13/37
f 6/214/38 19/26/39 21/207/40 24/14/41
f 12/201/42 11/198/43 25/35/44 26/199/45
f 31/37/46 18/205/47 27/203/48 25/35/49 11/198/50
f 18/24/51 17/23/52 28/39/53 27/38/54
f 29/41/55 30/42/56 12/201/57 26/199/58 28/39/59 17/23/60
s 4
f 28/40/61 32/222/62 34/225/17 27/22/20
f 26/36/63 25/21/19 35/220/18 33/224/64
f 26/36/63 33/224/64 32/222/62 28/40/61
s off
f 41/45/65 42/218/66 43/47/67 44/215/68
s 3
f 21/28/69 22/29/70 39/232/71 37/236/72
f 21/28/69 37/236/72 38/233/10 24/9/9
s off
f 46/51/73 45/230/74 47/53/75 48/228/76
s 3
f 40/237/11 39/232/71 22/29/70 23/12/12
s off
f 32/43/77 33/221/78 42/218/79 41/45/80
f 33/44/81 35/223/82 43/219/83 42/46/84
f 35/20/85 34/217/86 44/215/87 43/47/88
f 34/19/89 32/226/90 41/216/91 44/48/92
f 38/10/93 37/234/94 45/230/95 46/51/96
f 37/50/97 39/235/98 47/231/99 45/52/100
f 39/49/101 40/229/102 48/228/103 47/53/104
f 40/11/105 38/238/106 46/227/107 48/54/108
s 5
f 51/55/109 50/56/110 126/57/111 125/58/112
f 50/56/110 49/59/113 127/60/114 126/57/111
f 49/59/113 57/61/115 128/62/116 127/60/114
f 54/63/117 53/64/118 60/65/119 59/66/120
f 53/64/118 52/67/121 61/182/122 60/65/119
f 52/161/123 51/55/109 58/193/124 61/68/125
f 57/61/115 56/70/126 102/168/127 101/72/128
f 56/164/126 55/73/129 103/74/130 102/71/127
f 55/73/129 54/63/117 104/75/131 103/74/130
f 64/76/132 63/77/133 118/78/134 117/79/135
f 63/77/133 62/80/136 119/169/137 118/78/134
f 62/160/136 70/82/138 120/83/139 119/81/137
f 67/84/140 66/85/141 73/86/142 72/87/143
f 66/85/141 65/88/144 74/89/145 73/86/142
f 65/88/144 64/76/132 71/178/146 74/89/145
f 70/82/138 69/91/147 106/170/148 105/93/149
f 69/159/147 68/94/150 107/95/151 106/92/148
f 68/94/150 67/84/140 108/96/152 107/95/151
f 80/97/153 79/98/154 86/99/155 85/100/156
f 79/98/154 78/101/157 87/102/158 86/99/155
f 78/101/159 77/103/160 84/174/161 87/102/162
f 90/105/163 89/106/164 122/107/165 121/108/166
f 89/106/164 88/109/167 123/167/168 122/107/165
f 88/154/167 96/111/169 124/112/170 123/110/168
f 93/113/171 92/114/172 99/173/173 98/116/174
f 92/153/172 91/117/175 100/118/176 99/115/173
f 91/117/177 90/105/163 97/171/178 100/118/179
f 96/111/169 95/120/180 114/121/181 113/122/182
f 95/120/180 94/123/183 115/124/184 114/121/181
f 94/123/183 93/113/171 116/125/185 115/124/184
f 54/63/117 59/66/120 4/5/186 104/75/131
f 132/126/187 13/15/188 84/174/161 77/103/160
f 121/108/166 3/2/189 97/171/178 90/105/163
f 93/113/171 98/116/174 16/18/190 116/125/185
f 96/111/169 113/122/182 11/34/191 124/112/170
f 112/127/192 12/33/193 129/128/194 83/129/195
f 80/97/153 85/100/156 1/3/196 109/130/197
f 117/79/135 2/8/198 71/178/146 64/76/132
f 124/112/170 11/34/191 12/33/193 112/127/192
f 109/130/197 1/3/196 3/2/189 121/108/166
f 104/75/131 4/5/186 2/8/198 117/79/135
f 128/62/116 57/61/115 101/72/128 5/31/199
f 6/32/200 5/31/199 101/72/128 120/83/139
f 105/93/149 6/32/200 120/83/139 70/82/138
f 67/84/140 72/87/143 7/16/201 108/96/152
f 125/58/112 10/17/202 58/193/124 51/55/109
f 113/122/182 128/62/116 5/31/199 36/208/203 20/25/23 18/204/22 31/197/204 11/34/191
f 129/128/194 12/33/193 30/200/205 29/202/206 17/206/21 19/212/24 6/32/200 105/93/149
f 108/96/152 7/16/201 13/15/188 132/126/187
f 116/125/185 16/18/190 10/17/202 125/58/112
s 1
f 58/69/207 10/196/15 9/6/6 4/187/5 59/184/208 60/183/209 61/194/210
f 71/90/211 2/189/8 8/7/7 7/186/14 72/181/212 73/180/213 74/179/214
f 84/104/215 13/188/13 14/4/4 1/185/3 85/177/216 86/176/217 87/175/218
f 97/119/219 3/190/2 15/1/1 16/195/16 98/192/220 99/191/221 100/172/222
s 5
f 107/95/151 108/96/152 132/126/187 131/131/223
f 105/93/149 106/170/148 130/165/224 129/128/194
f 106/92/148 107/95/151 131/131/223 130/132/224
f 83/129/195 82/133/225 111/166/226 112/127/192
f 82/156/225 81/135/227 110/136/228 111/134/226
f 81/135/227 80/97/153 109/130/197 110/136/228
f 101/72/128 102/168/127 119/81/137 120/83/139
f 102/71/127 103/74/130 118/78/134 119/169/137
f 103/74/130 104/75/131 117/79/135 118/78/134
f 112/127/192 111/166/226 123/110/168 124/112/170
f 111/134/226 110/136/228 122/107/165 123/167/168
f 110/136/228 109/130/197 121/108/166 122/107/165
f 113/122/182 114/121/181 127/60/114 128/62/116
f 114/121/181 115/124/184 126/57/111 127/60/114
f 115/124/184 116/125/185 125/58/112 126/57/111
f 77/103/160 76/137/229 131/131/223 132/126/187
f 76/137/229 75/138/230 130/132/224 131/131/223
f 75/157/230 83/129/195 129/128/194 130/165/224
f 56/70/126 57/61/115 49/59/113 133/163/231
f 133/163/231 49/59/113 50/56/110 134/162/232
f 50/56/110 51/55/109 52/161/123 134/162/233
f 134/140/232 52/67/121 53/64/118 135/141/234
f 53/64/118 54/63/117 55/73/129 135/141/235
f 135/141/234 55/73/129 56/164/126 133/139/231
f 133/139/231 134/140/232 135/141/234
f 69/91/147 70/82/138 62/160/136 136/158/236
f 136/142/236 62/80/136 63/77/133 137/143/237
f 63/77/133 64/76/132 65/88/144 137/143/238
f 137/143/237 65/88/144 66/85/141 138/144/239
f 66/85/141 67/84/140 68/94/150 138/144/240
f 138/144/239 68/94/150 69/159/147 136/142/236
f 136/142/236 137/143/237 138/144/239
f 82/133/225 83/129/195 75/157/230 139/155/241
f 139/145/241 75/138/230 76/137/229 140/146/242
f 76/137/229 77/103/160 78/101/159 140/146/243
f 140/146/242 78/101/157 79/98/154 141/147/244
f 79/98/154 80/97/153 81/135/227 141/147/245
f 141/147/244 81/135/227 82/156/225 139/145/241
f 139/145/241 140/146/242 141/147/244
f 95/120/180 96/111/169 88/154/167 142/151/246
f 142/148/246 88/109/167 89/106/164 143/149/247
f 89/106/164 90/105/163 91/117/177 143/149/248
f 143/149/247 91/117/175 92/153/172 144/152/249
f 92/114/172 93/113/171 94/123/183 144/150/250
f 144/150/249 94/123/183 95/120/180 142/151/246
f 142/148/246 143/149/247 144/152/249
