# This file uses centimeters as units for non-parametric coordinates.

mtllib uppercounter.mtl
g default
v -5.343287 5.567312 -5.001111
v -5.343287 5.567312 -2.941792
v -5.343287 3.589948 -5.001111
v -5.343287 3.589948 -2.941792
v -6.344807 3.589948 -3.060418
v -6.344807 5.567312 -3.060418
v -5.343287 5.678174 -3.060418
v -5.341767 5.567312 -3.060418
v -5.341767 3.589948 -3.060418
v -5.343287 3.468615 -3.060418
v -6.344344 3.589948 -4.856926
v -6.344344 5.567312 -4.856926
v -5.343287 5.678174 -4.856927
v -5.342230 5.567312 -4.856926
v -5.342230 3.589948 -4.856926
v -5.343287 3.468615 -4.856927
v -6.330045 5.567312 -3.995784
v -6.344578 3.589948 -3.946969
v -6.344616 5.567312 -3.799775
v -6.344605 3.589948 -3.841584
v -6.401547 5.567312 -3.799790
v -6.401536 3.589948 -3.841598
v -6.401737 3.589948 -3.060433
v -6.401737 5.567312 -3.060433
v -6.401274 3.589948 -4.856941
v -6.401274 5.567312 -4.856941
v -6.401509 3.589948 -3.946984
v -6.401490 5.567312 -4.019007
v -6.401446 3.998875 -4.190660
v -6.401475 3.980145 -4.079525
v -6.401449 3.679855 -4.179326
v -6.401477 3.682475 -4.070416
v -6.401568 3.981796 -3.717240
v -6.401603 4.016133 -3.581216
v -6.401565 3.675214 -3.727218
v -6.401600 3.679124 -3.592218
v -6.441120 3.998875 -4.190669
v -6.441148 3.980145 -4.079537
v -6.441123 3.679855 -4.179337
v -6.441151 3.682475 -4.070428
v -6.441242 3.981796 -3.717252
v -6.441277 4.016133 -3.581227
v -6.441239 3.675214 -3.727227
v -6.441274 3.679124 -3.592229
v -5.343287 3.520866 -3.886934
v -5.341854 3.542125 -3.886932
v -5.341854 5.519490 -3.886932
v -5.343287 5.630351 -3.886934
v -6.336887 3.492004 -2.988660
v -6.319761 3.474878 -2.988660
v -6.296453 3.468615 -2.988626
v -6.296386 3.474890 -2.965210
v -6.296386 3.492032 -2.948067
v -6.296453 3.515449 -2.941792
v -6.319761 3.515484 -2.948055
v -6.336887 3.515484 -2.965181
v -6.343287 3.515449 -2.988626
v -5.343287 3.468615 -2.988626
v -5.343287 3.515449 -2.941792
v -5.343287 3.492032 -2.948067
v -5.343287 3.474890 -2.965210
v -6.336874 5.631303 -2.965178
v -6.319751 5.631303 -2.948054
v -6.296453 5.631341 -2.941792
v -6.296377 5.654757 -2.948067
v -6.296377 5.671899 -2.965210
v -6.296453 5.678174 -2.988626
v -6.319744 5.671914 -2.988667
v -6.336866 5.654790 -2.988667
v -6.343287 5.631341 -2.988626
v -5.343287 5.631341 -2.941792
v -5.343287 5.678174 -2.988626
v -5.343287 5.671899 -2.965210
v -5.343287 5.654757 -2.948067
v -6.336929 5.654776 -4.954253
v -6.319798 5.671907 -4.954253
v -6.296453 5.678174 -4.954277
v -6.296411 5.671899 -4.977693
v -6.296411 5.654757 -4.994836
v -6.296453 5.631341 -5.001111
v -6.319809 5.631321 -4.994842
v -6.336941 5.631321 -4.977710
v -6.343287 5.631341 -4.954277
v -5.343287 5.678174 -4.954277
v -5.343287 5.631341 -5.001111
v -5.343287 5.654757 -4.994836
v -5.343287 5.671899 -4.977693
v -6.336948 3.515467 -4.977708
v -6.319814 3.515467 -4.994842
v -6.296453 3.515449 -5.001111
v -6.296416 3.492032 -4.994836
v -6.296416 3.474890 -4.977693
v -6.296453 3.468615 -4.954277
v -6.319808 3.474883 -4.954258
v -6.336940 3.492016 -4.954258
v -6.343287 3.515449 -4.954277
v -5.343287 3.515449 -5.001111
v -5.343287 3.468615 -4.954277
v -5.343287 3.474890 -4.977693
v -5.343287 3.492032 -4.994836
v -6.343883 3.589948 -2.988325
v -6.337369 3.589948 -2.965014
v -6.320144 3.589948 -2.948008
v -6.296750 3.589948 -2.941792
v -6.343907 5.631654 -3.059072
v -6.337383 5.654962 -3.059746
v -6.320155 5.671961 -3.060238
v -6.296763 5.678174 -3.060418
v -6.296624 5.567312 -5.001111
v -6.320027 5.567312 -4.994870
v -6.337217 5.567312 -4.977805
v -6.343629 5.567312 -4.954448
v -6.343684 3.515249 -4.858183
v -6.337250 3.491902 -4.857554
v -6.320053 3.474851 -4.857095
v -6.296651 3.468615 -4.856927
v -6.296750 5.567312 -2.941792
v -6.320144 5.567312 -2.948008
v -6.337369 5.567312 -2.965014
v -6.343883 5.567312 -2.988325
v -6.296624 3.589948 -5.001111
v -6.320027 3.589948 -4.994870
v -6.337217 3.589948 -4.977805
v -6.343629 3.589948 -4.954448
v -6.296735 3.468615 -3.060418
v -6.320129 3.474834 -3.060221
v -6.337350 3.491846 -3.059684
v -6.343851 3.515165 -3.058947
v -6.344249 5.583940 -3.886736
v -6.337587 5.607219 -3.886835
v -6.320311 5.624165 -3.886907
v -6.296932 5.630351 -3.886934
v -6.344166 3.567333 -3.886717
v -6.337538 3.544033 -3.886825
v -6.320273 3.527063 -3.886905
v -6.296891 3.520866 -3.886934
v -6.296671 5.678174 -4.856927
v -6.320071 5.671944 -4.857080
v -6.337273 5.654901 -4.857501
v -6.343723 5.631561 -4.858077
v -6.333288 3.495210 -2.968387
v -6.316520 3.478410 -2.968404
v -6.316520 3.495226 -2.951588
v -6.333259 5.651582 -2.968388
v -6.316497 5.651562 -2.951588
v -6.316495 5.668380 -2.968406
v -6.333367 5.651581 -4.974512
v -6.316584 5.668380 -4.974504
v -6.316588 5.651570 -4.991314
v -6.333382 3.495211 -4.974513
v -6.316600 3.495219 -4.991314
v -6.316598 3.478411 -4.974505
vt 0.790541 0.433428
vt 0.815354 0.431732
vt 0.324227 0.596200
vt 0.813799 0.773716
vt 0.704956 0.103541
vt 0.481379 0.454559
vt 0.504635 0.794845
vt 0.537236 0.340397
vt 0.854806 0.364194
vt 0.357462 0.082325
vt 0.365507 0.036888
vt 0.856468 0.009389
vt 0.957118 0.715444
vt 0.897511 0.975394
vt 0.646309 0.776896
vt 0.440924 0.460002
vt 0.518048 0.365339
vt 0.623051 0.436609
vt 0.204766 0.852493
vt 0.318273 0.861454
vt 0.961140 0.668431
vt 0.332470 0.070410
vt 0.371609 0.029613
vt 0.972456 0.364289
vt 0.336029 0.258221
vt 0.391821 0.155841
vt 0.388693 0.154364
vt 0.333104 0.256719
vt 0.939613 0.772526
vt 0.905916 0.919497
vt 0.943810 0.773486
vt 0.722211 0.363570
vt 0.281429 0.029847
vt 0.716365 0.008730
vt 0.291265 0.309983
vt 0.036742 0.319092
vt 0.026618 0.038899
vt 0.310456 0.305371
vt 0.832301 0.668324
vt 0.832568 0.364177
vt 0.377711 0.030152
vt 0.295336 0.014022
vt 0.342156 0.008730
vt 0.383813 0.033442
vt 0.329338 0.064365
vt 0.380373 0.030396
vt 0.297263 0.020552
vt 0.374391 0.029911
vt 0.359811 0.075972
vt 0.387009 0.033502
vt 0.341239 0.015441
vt 0.368820 0.037005
vt 0.451412 0.871966
vt 0.347670 0.569723
vt 0.205241 0.721076
vt 0.290951 0.012121
vt 0.280841 0.012410
vt 0.280598 0.008985
vt 0.291019 0.015519
vt 0.281059 0.015835
vt 0.291177 0.018910
vt 0.281272 0.019259
vt 0.596157 0.015973
vt 0.598081 0.013042
vt 0.712833 0.091518
vt 0.710900 0.094468
vt 0.599906 0.010036
vt 0.191604 0.851453
vt 0.467595 0.434522
vt 0.294605 0.018620
vt 0.584259 0.020816
vt 0.291652 0.029459
vt 0.593396 0.013964
vt 0.587143 0.022824
vt 0.590029 0.024834
vt 0.422050 0.264880
vt 0.418984 0.263256
vt 0.424231 0.255647
vt 0.427165 0.257591
vt 0.415777 0.261857
vt 0.304918 0.309496
vt 0.301756 0.318674
vt 0.301487 0.309614
vt 0.415801 0.272790
vt 0.417976 0.270225
vt 0.526916 0.353913
vt 0.524682 0.356815
vt 0.420059 0.267590
vt 0.529145 0.351006
vt 0.484972 0.807260
vt 0.301937 0.322110
vt 0.403947 0.275661
vt 0.291785 0.319098
vt 0.413466 0.270211
vt 0.406581 0.277994
vt 0.409199 0.280346
vt 0.236334 0.488012
vt 0.233371 0.486143
vt 0.242276 0.475439
vt 0.245050 0.477613
vt 0.230351 0.484479
vt 0.037107 0.331636
vt 0.023278 0.328637
vt 0.036903 0.328206
vt 0.229461 0.495369
vt 0.231834 0.492994
vt 0.333106 0.586257
vt 0.330671 0.589001
vt 0.234124 0.490542
vt 0.335536 0.583508
vt 0.831857 0.791650
vt 0.015604 0.711851
vt 0.013124 0.709490
vt 0.020726 0.701778
vt 0.023229 0.704254
vt 0.010453 0.707260
vt 0.009356 0.039474
vt 0.012504 0.028813
vt 0.012789 0.039368
vt 0.475069 0.742380
vt 0.008547 0.019278
vt 0.107437 0.814384
vt 0.464755 0.873020
vt 0.013062 0.714267
vt 0.109983 0.811948
vt 0.814478 0.418911
vt 0.012414 0.025417
vt 0.026009 0.024896
vt 0.026052 0.028330
vt 0.012245 0.022017
vt 0.025972 0.021463
vt 0.461729 0.741299
vt 0.223047 0.501572
vt 0.328593 0.730755
vt 0.022915 0.319577
vt 0.164098 0.030454
vt 0.174288 0.316490
vt 0.333617 0.371515
vt 0.330921 0.369256
vt 0.328231 0.366998
vt 0.019848 0.328816
vt 0.218166 0.496505
vt 0.227338 0.492624
vt 0.220605 0.499037
vt 0.163829 0.023580
vt 0.163962 0.027016
vt 0.593036 0.009398
vt 0.596812 0.008730
vt 0.595450 0.011800
vt 0.414312 0.265242
vt 0.417825 0.265907
vt 0.415797 0.268472
vt 0.228561 0.487730
vt 0.232017 0.488683
vt 0.229794 0.491070
vt 0.008559 0.709963
vt 0.011376 0.711888
vt 0.009333 0.022143
vt 0.009469 0.025677
vt 0.008547 0.713840
vt 0.010445 0.716607
vt 0.009066 0.028763
vt 0.020372 0.331761
vt 0.225420 0.489701
vt 0.023348 0.332074
vt 0.304885 0.321584
vt 0.411367 0.267506
vt 0.305195 0.318606
vt 0.201918 0.720823
vt 0.293872 0.012048
vt 0.293980 0.015572
vt 0.590720 0.011740
vt 0.174397 0.319924
vt 0.239517 0.473250
vt 0.019482 0.319703
vt 0.018226 0.699304
vt 0.295082 0.029320
vt 0.421300 0.253706
vt 0.291814 0.322532
vt 0.112530 0.809509
vt 0.813123 0.414955
vt 0.468078 0.873282
vt 0.337959 0.580758
vt 0.835813 0.790294
vt 0.838561 0.787143
vt 0.839366 0.783039
vt 0.531368 0.348095
vt 0.486327 0.811216
vt 0.489479 0.813964
vt 0.493582 0.814769
vt 0.714763 0.088573
vt 0.460891 0.439029
vt 0.460086 0.443133
vt 0.838612 0.772020
vt 0.505938 0.813925
vt 0.460962 0.455954
vt 0.647613 0.795976
vt 0.815103 0.792795
vt 0.484219 0.796241
vt 0.120364 0.801989
vt 0.809971 0.412207
vt 0.805867 0.411402
vt 0.194926 0.851716
vt 0.463640 0.435877
vt 0.789114 0.412547
vt 0.622801 0.432942
vt 0.479951 0.433677
vt 0.163702 0.020150
vt 0.215084 0.721815
vt 0.025957 0.018029
vt 0.011993 0.018602
vt 0.478392 0.742647
vt 0.294461 0.009149
vt 0.290985 0.008730
vt 0.470614 0.010343
vt 0.414878 0.112765
vt 0.467787 0.008730
vt 0.307540 0.303791
vt 0.155462 0.314808
vt 0.155665 0.033990
vt 0.412234 0.111018
vt 0.910110 0.920461
vt 0.990770 0.568496
vt 0.986611 0.567540
vt 0.893320 0.974439
vt 0.186524 0.313695
vt 0.170609 0.033456
vt 0.952922 0.714478
vt 0.369814 0.008847
vt 0.364084 0.018564
vt 0.365001 0.011854
vt 0.337347 0.067665
vt 0.387475 0.008790
vt 0.736772 0.024125
vt 0.762684 0.085420
vt 0.334998 0.074018
vt 0.384279 0.008730
vt 0.738305 0.079145
vt 0.760993 0.024940
vt 0.366501 0.008730
vt 0.376630 0.009029
vt 0.315192 0.015260
vt 0.313265 0.008730
vt 0.312167 0.073262
vt 0.382336 0.008974
vt 0.936767 0.378086
vt 0.952079 0.424290
vt 0.315299 0.079307
vt 0.379673 0.008730
vt 0.934982 0.427157
vt 0.953519 0.378504
vt 0.373848 0.008730
vn 0.999999 -0.000531 -0.001249
vn 0.999975 -0.000252 -0.007131
vn 0.999974 0.000253 -0.007149
vn 0.999999 0.000582 -0.001246
vn 0.999922 -0.000363 0.012469
vn 0.999999 -0.000633 0.001457
vn 0.999999 0.000707 0.001485
vn 0.999922 0.000365 0.012499
vn -1.000000 0.000000 -0.000258
vn -1.000000 0.000000 -0.000258
vn -1.000000 0.000000 -0.000258
vn -1.000000 0.000000 -0.000258
vn 1.000000 0.000607 -0.000254
vn 0.999926 0.012191 -0.000186
vn 0.999921 0.012543 0.000115
vn 1.000000 -0.000704 -0.000253
vn 0.999839 -0.017909 0.001223
vn 0.999820 -0.018954 -0.000133
vn -1.000000 0.000000 -0.000258
vn -1.000000 0.000000 -0.000258
vn -1.000000 -0.000001 -0.000257
vn -1.000000 -0.000000 -0.000257
vn -0.998786 -0.030981 -0.038305
vn -0.999277 0.000436 -0.038029
vn -0.999217 0.000318 -0.039565
vn -0.999181 0.005383 -0.040103
vn 0.000254 0.021139 -0.999777
vn 0.000254 0.021139 -0.999777
vn 0.000254 0.021139 -0.999777
vn 0.000254 0.021139 -0.999777
vn 0.000000 -1.000000 0.000000
vn 0.000000 -1.000000 0.000000
vn 0.000000 -1.000000 0.000000
vn 0.000000 -1.000000 0.000000
vn -0.000246 0.000000 1.000000
vn -0.000246 0.000000 1.000000
vn -0.000246 0.000000 1.000000
vn -0.000246 0.000000 1.000000
vn 0.000000 1.000000 0.000000
vn 0.000000 1.000000 0.000000
vn 0.000000 1.000000 0.000000
vn 0.000000 1.000000 0.000000
vn 0.000254 0.000000 -1.000000
vn 0.000254 0.000000 -1.000000
vn 0.000254 0.000000 -1.000000
vn 0.000254 0.000000 -1.000000
vn 0.000000 -1.000000 0.000000
vn 0.000000 -1.000000 0.000000
vn 0.000000 -1.000000 0.000000
vn 0.000000 -1.000000 0.000000
vn -0.178051 0.030708 0.983542
vn -0.178051 0.030708 0.983542
vn -0.178051 0.030708 0.983542
vn -0.178051 0.030708 0.983542
vn 0.000000 1.000000 -0.000001
vn 0.000000 1.000000 -0.000001
vn 0.000000 1.000000 -0.000001
vn 0.000000 1.000000 -0.000001
vn -1.000000 0.000000 -0.000258
vn -1.000000 0.000000 -0.000258
vn -1.000000 -0.000000 -0.000258
vn -1.000000 -0.000000 -0.000258
vn -1.000000 0.000000 -0.000258
vn -1.000000 0.000000 -0.000257
vn -1.000000 0.000000 -0.000257
vn -1.000000 0.000000 -0.000257
vn -1.000000 -0.000001 -0.000258
vn -1.000000 -0.000001 -0.000258
vn -1.000000 -0.000001 -0.000258
vn -1.000000 -0.000001 -0.000258
vn -1.000000 0.000000 -0.000258
vn -1.000000 0.000000 -0.000258
vn -1.000000 0.000000 -0.000258
vn -1.000000 0.000000 -0.000258
vn -0.000043 0.986093 0.166192
vn -0.000043 0.986093 0.166192
vn -0.000043 0.986093 0.166192
vn -0.000043 0.986093 0.166192
vn 0.000254 -0.035501 -0.999370
vn 0.000254 -0.035501 -0.999370
vn 0.000254 -0.035501 -0.999370
vn 0.000254 -0.035501 -0.999370
vn -0.000007 -0.999711 0.024048
vn -0.000007 -0.999711 0.024048
vn -0.000007 -0.999711 0.024048
vn -0.000007 -0.999711 0.024048
vn -0.000283 0.030586 0.999532
vn -0.000283 0.030586 0.999532
vn -0.000283 0.030586 0.999532
vn -0.000283 0.030586 0.999532
vn 0.000070 0.969586 -0.244753
vn 0.000070 0.969586 -0.244753
vn 0.000070 0.969586 -0.244753
vn 0.000070 0.969586 -0.244753
vn 0.000264 0.032523 -0.999471
vn 0.000264 0.032523 -0.999471
vn 0.000264 0.032523 -0.999471
vn 0.000264 0.032523 -0.999471
vn -0.000007 -0.999581 0.028953
vn -0.000007 -0.999581 0.028953
vn -0.000007 -0.999581 0.028953
vn -0.000007 -0.999581 0.028953
vn -0.000267 -0.032628 0.999468
vn -0.000267 -0.032628 0.999468
vn -0.000267 -0.032628 0.999468
vn -0.000267 -0.032628 0.999468
vn 0.999890 -0.014836 -0.000888
vn 0.999946 0.010417 -0.000176
vn -0.000629 -0.998768 -0.049611
vn -0.496705 -0.866195 0.054678
vn -0.493610 -0.868237 -0.050138
vn -0.003264 -0.998307 -0.058066
vn -0.862356 -0.502970 0.057996
vn -0.858795 -0.511497 -0.029016
vn -0.995038 -0.068987 0.071691
vn -0.994793 -0.101818 -0.004447
vn -0.005980 -0.063453 0.997967
vn -0.004828 -0.499751 0.866156
vn -0.000000 -0.500015 0.866017
vn 0.000000 -0.063942 0.997954
vn -0.004800 -0.707112 0.707085
vn -0.000000 -0.707121 0.707093
vn -0.004527 -0.966029 0.258395
vn 0.000000 -0.998758 -0.049823
vn 0.000000 -0.965923 0.258831
vn -0.862836 -0.056089 0.502362
vn -0.861786 -0.000243 0.507272
vn -0.996980 -0.000351 0.077662
vn -0.497162 -0.053063 0.866034
vn -0.496416 -0.000124 0.868085
vn -0.006365 -0.000001 0.999980
vn -0.005931 0.071000 0.997459
vn -0.496972 0.059831 0.865701
vn -0.496407 0.000127 0.868090
vn -0.006365 0.000001 0.999980
vn -0.862500 0.063347 0.502077
vn -0.861776 0.000247 0.507289
vn -0.994435 0.077300 0.071583
vn -0.996978 0.000343 0.077680
vn -0.005959 0.997852 0.065236
vn -0.004827 0.866177 0.499714
vn -0.000000 0.866024 0.500003
vn 0.000000 0.997836 0.065753
vn -0.004828 0.499723 0.866172
vn -0.000000 0.500012 0.866019
vn 0.000000 0.071562 0.997436
vn -0.862109 0.503323 0.058597
vn -0.858492 0.512144 -0.026446
vn -0.993471 0.113999 -0.004525
vn -0.496617 0.866227 0.054984
vn -0.493389 0.868600 -0.045836
vn -0.006317 0.998566 -0.053169
vn -0.006067 0.998653 -0.051531
vn -0.497580 0.866399 -0.042035
vn -0.494254 0.868461 0.038582
vn -0.006330 0.998978 0.044763
vn -0.863571 0.502313 -0.043899
vn -0.859527 0.510607 0.022217
vn -0.995738 0.074733 -0.054043
vn -0.999913 0.012048 0.005438
vn -0.005952 0.071095 -0.997452
vn -0.004829 0.499816 -0.866118
vn -0.000000 0.500010 -0.866020
vn 0.000000 0.071566 -0.997436
vn -0.004828 0.866118 -0.499816
vn -0.000000 0.866020 -0.500009
vn 0.000000 0.998653 -0.051884
vn -0.000290 -0.003069 -0.999995
vn -0.497794 -0.051753 -0.865750
vn -0.497957 -0.000070 -0.867202
vn -0.003236 -0.000000 -0.999995
vn -0.863961 -0.053465 -0.500713
vn -0.863615 -0.000138 -0.504152
vn -0.996295 -0.066738 -0.054241
vn -0.998269 -0.000226 -0.058809
vn -0.000686 -0.999121 0.041915
vn -0.004535 -0.966032 -0.258382
vn 0.000000 -0.965924 -0.258827
vn 0.000000 -0.999113 0.042117
vn -0.004794 -0.707113 -0.707084
vn -0.004830 -0.499834 -0.866108
vn -0.000000 -0.500013 -0.866018
vn -0.000000 -0.707122 -0.707092
vn 0.000000 -0.003023 -0.999996
vn -0.863726 -0.502072 -0.043594
vn -0.859790 -0.510066 0.024374
vn -0.995149 -0.098307 0.003643
vn -0.497648 -0.866368 -0.041881
vn -0.494455 -0.868178 0.042204
vn -0.003261 -0.998799 0.048894
vn 0.000000 0.000000 1.000000
vn 0.000000 0.998998 0.044762
vn 0.000000 0.000000 -1.000000
vn -0.006170 0.000001 -0.999981
vn 0.000000 0.000000 -1.000000
vn 0.000000 -0.998804 0.048897
vn 0.000000 -1.000000 -0.000001
vn -0.005885 -0.999983 -0.000002
vn -0.999980 -0.002300 -0.005903
vn -0.998269 0.000220 -0.058820
vn -0.999597 -0.027845 -0.005601
vn 0.000000 0.000000 1.000000
vn -0.999945 -0.003317 0.009922
vn -0.999942 0.003097 0.010337
vn 0.000000 0.998586 -0.053163
vn 0.000000 -0.998313 -0.058069
vn -0.985410 -0.170197 -0.000170
vn -0.985194 0.171406 -0.003700
vn 0.000000 1.000000 -0.000001
vn -0.006412 0.999979 -0.000002
vn 0.999957 -0.006510 0.006660
vn 0.999957 -0.006510 0.006660
vn 0.999957 -0.006510 0.006660
vn 0.999957 -0.006510 0.006660
vn 0.999952 0.007152 0.006685
vn 0.999952 0.007152 0.006685
vn 0.999952 0.007152 0.006685
vn 0.999952 0.007152 0.006685
vn 0.999981 0.004935 -0.003795
vn 0.999981 0.004935 -0.003795
vn 0.999981 0.004935 -0.003795
vn 0.999981 0.004935 -0.003795
vn 0.999983 -0.004496 -0.003784
vn 0.999983 -0.004496 -0.003784
vn 0.999983 -0.004496 -0.003784
vn 0.999983 -0.004496 -0.003784
vn -0.499700 0.866198 -0.000043
vn -0.864784 0.502144 -0.000104
vn -0.863678 0.060289 -0.500425
vn -0.863610 0.000140 -0.504161
vn -0.497560 0.058302 -0.865468
vn -0.497952 0.000072 -0.867205
vn -0.500564 -0.865700 -0.000039
vn -0.865668 -0.500618 -0.000098
vn -0.944054 -0.233187 0.233207
vn -0.707247 -0.499890 0.499911
vn -0.500399 -0.707038 0.499697
vn -0.230024 -0.945662 0.229809
vn -0.500411 -0.499700 0.707028
vn -0.230033 -0.229794 0.945664
vn -0.943766 0.233945 0.233616
vn -0.707161 0.500025 0.499899
vn -0.500529 0.499790 0.706881
vn -0.230164 0.229916 0.945602
vn -0.500539 0.706959 0.499670
vn -0.230170 0.945601 0.229916
vn -0.944855 0.231827 -0.231312
vn -0.707489 0.499819 -0.499640
vn -0.500027 0.707421 -0.499528
vn -0.229649 0.945841 -0.229448
vn -0.500024 0.499694 -0.707307
vn -0.229618 0.229505 -0.945835
vn -0.945009 -0.231398 -0.231114
vn -0.707532 -0.499737 -0.499661
vn -0.499975 -0.499637 -0.707381
vn -0.229563 -0.229445 -0.945863
vn -0.499969 -0.707444 -0.499554
vn -0.229568 -0.945868 -0.229419
s 1
g pCube9
usemtl initialShadingGroup
f 15/1/1 3/2/2 1/194/3 14/4/4
f 4/196/5 9/6/6 8/7/7 2/199/8
s 3
f 24/9/9 34/235/10 36/239/11 23/12/12
s 1
f 8/7/7 47/15/13 48/197/14 7/195/15
f 9/6/6 46/18/16 47/15/13 8/7/7
f 10/207/17 45/206/18 46/18/16 9/6/6
s 4
f 28/21/19 30/247/20 32/251/21 27/24/22
s 5
f 17/219/23 18/220/24 20/227/25 19/226/26
s off
f 19/30/27 20/29/28 22/31/29 21/222/30
f 20/29/31 5/228/32 23/13/33 22/31/34
f 5/228/35 6/224/36 24/223/37 23/13/38
f 6/225/39 19/30/40 21/222/41 24/14/42
f 12/221/43 11/217/44 25/215/45 26/216/46
f 11/218/47 18/28/48 27/25/49 25/38/50
f 18/28/51 17/27/52 28/26/53 27/25/54
f 17/27/55 12/221/56 26/216/57 28/26/58
s 4
f 26/39/59 29/250/60 30/247/20 28/21/19
f 26/39/59 25/40/61 31/246/62 29/250/60
s 3
f 21/32/63 22/34/64 35/234/65 33/238/66
f 21/32/63 33/238/66 34/235/10 24/9/9
s off
f 38/45/67 37/244/68 39/47/69 40/242/70
s 4
f 32/251/21 31/246/62 25/40/61 27/24/22
s off
f 42/49/71 41/232/72 43/51/73 44/230/74
s 3
f 36/239/11 35/234/65 22/34/64 23/12/12
s off
f 30/22/75 29/248/76 37/244/77 38/45/78
f 29/41/79 31/249/80 39/245/81 37/46/82
f 31/42/83 32/243/84 40/242/85 39/47/86
f 32/23/87 30/252/88 38/241/89 40/48/90
f 34/10/91 33/236/92 41/232/93 42/49/94
f 33/44/95 35/237/96 43/233/97 41/50/98
f 35/43/99 36/231/100 44/230/101 43/51/102
f 36/11/103 34/240/104 42/229/105 44/52/106
s 1
f 46/18/16 45/206/18 16/205/107 15/1/1
f 47/15/13 46/18/16 15/1/1 14/4/4
f 48/197/14 47/15/13 14/4/4 13/198/108
s 5
f 51/214/109 50/56/110 126/57/111 125/58/112
f 50/56/110 49/59/113 127/60/114 126/57/111
f 49/59/113 57/61/115 128/62/116 127/60/114
f 54/63/117 53/64/118 60/65/119 59/66/120
f 53/64/118 52/67/121 61/191/122 60/65/119
f 52/169/123 51/55/109 58/203/124 61/68/125
f 57/61/115 56/70/126 102/177/127 101/72/128
f 56/172/126 55/73/129 103/74/130 102/71/127
f 55/73/129 54/63/117 104/75/131 103/74/130
f 64/76/132 63/77/133 118/78/134 117/79/135
f 63/77/133 62/80/136 119/178/137 118/78/134
f 62/168/136 70/82/138 120/83/139 119/81/137
f 67/84/140 66/85/141 73/86/142 72/87/143
f 66/85/141 65/88/144 74/89/145 73/86/142
f 65/88/144 64/76/132 71/187/146 74/89/145
f 70/82/138 69/91/147 106/179/148 105/93/149
f 69/167/147 68/94/150 107/95/151 106/92/148
f 68/94/150 67/84/140 108/96/152 107/95/151
f 77/97/153 76/98/154 138/99/155 137/100/156
f 76/98/154 75/101/157 139/174/158 138/99/155
f 75/165/157 83/103/159 140/104/160 139/102/158
f 80/105/161 79/106/162 86/107/163 85/108/164
f 79/106/162 78/109/165 87/110/166 86/107/163
f 78/109/165 77/97/153 84/183/167 87/110/166
f 90/112/168 89/113/169 122/114/170 121/115/171
f 89/113/169 88/116/172 123/176/173 122/114/170
f 88/162/172 96/118/174 124/119/175 123/117/173
f 93/120/176 92/212/177 99/182/178 98/123/179
f 92/161/180 91/124/181 100/125/182 99/122/183
f 91/124/181 90/112/168 97/180/184 100/125/182
f 96/118/174 95/127/185 114/128/186 113/129/187
f 95/127/185 94/130/188 115/131/189 114/128/186
f 94/130/188 93/211/176 116/210/190 115/131/189
f 54/63/117 59/66/120 4/5/191 104/75/131
f 137/100/156 13/54/192 84/183/167 77/97/153
f 3/200/193 97/180/184 90/112/168 121/115/171 109/133/194 1/3/195
f 116/132/190 93/120/176 98/123/179 16/53/196 45/20/197 136/134/198
f 96/118/174 113/129/187 11/37/199 124/119/175
f 112/135/200 12/36/201 140/104/160 83/103/159
f 80/105/161 85/108/164 1/3/195 109/133/194
f 117/79/135 2/8/202 71/187/146 64/76/132
f 124/119/175 11/37/199 12/36/201 112/135/200
f 104/75/131 4/5/191 2/8/202 117/79/135
f 128/62/116 57/61/115 101/72/128 5/33/203
f 6/35/204 5/33/203 101/72/128 120/83/139
f 105/93/149 6/35/204 120/83/139 70/82/138
f 67/84/140 72/87/143 7/17/205 108/96/152
f 10/19/206 58/203/124 51/55/109 125/209/112 136/134/198 45/20/197
f 113/129/187 133/136/207 18/220/24 11/37/199
f 129/137/208 19/226/26 6/35/204 105/93/149
f 108/96/152 7/17/205 48/16/209 132/138/210
f 132/138/210 48/16/209 13/54/192 137/100/156
s 1
f 58/69/211 10/207/17 9/6/6 4/196/5 59/193/212 60/192/213 61/204/214
f 71/90/215 2/199/8 8/7/7 7/195/15 72/190/216 73/189/217 74/188/218
f 84/111/219 13/198/108 14/4/4 1/194/3 85/186/220 86/185/221 87/184/222
f 97/126/223 3/2/2 15/1/1 16/205/107 98/202/224 99/201/225 100/181/226
s 5
f 107/95/151 108/96/152 132/138/210 131/139/227
f 105/93/149 106/179/148 130/173/228 129/137/208
f 106/92/148 107/95/151 131/139/227 130/140/228
f 83/103/159 82/141/229 111/175/230 112/135/200
f 82/164/229 81/143/231 110/144/232 111/142/230
f 81/143/231 80/105/161 109/133/194 110/144/232
f 115/131/189 116/210/190 136/208/198 135/145/233
f 113/129/187 114/128/186 134/146/234 133/136/207
f 114/128/186 115/131/189 135/145/233 134/146/234
f 101/72/128 102/177/127 119/81/137 120/83/139
f 102/71/127 103/74/130 118/78/134 119/178/137
f 103/74/130 104/75/131 117/79/135 118/78/134
f 112/135/200 111/175/230 123/117/173 124/119/175
f 111/142/230 110/144/232 122/114/170 123/176/173
f 110/144/232 109/133/194 121/115/171 122/114/170
f 125/58/112 126/57/111 135/145/233 136/208/198
f 126/57/111 127/60/114 134/146/234 135/145/233
f 127/60/114 128/62/116 133/136/207 134/146/234
f 129/137/208 130/173/228 139/102/158 140/104/160
f 130/140/228 131/139/227 138/99/155 139/174/158
f 131/139/227 132/138/210 137/100/156 138/99/155
f 56/70/126 57/61/115 49/59/113 141/171/235
f 141/171/236 49/59/113 50/56/110 142/170/237
f 50/56/110 51/214/109 52/213/123 142/170/238
f 142/148/237 52/67/121 53/64/118 143/149/239
f 53/64/118 54/63/117 55/73/129 143/149/240
f 143/149/239 55/73/129 56/172/126 141/147/236
f 141/147/236 142/148/237 143/149/239
f 69/91/147 70/82/138 62/168/136 144/166/241
f 144/150/242 62/80/136 63/77/133 145/151/243
f 63/77/133 64/76/132 65/88/144 145/151/244
f 145/151/243 65/88/144 66/85/141 146/152/245
f 66/85/141 67/84/140 68/94/150 146/152/246
f 146/152/245 68/94/150 69/167/147 144/150/242
f 144/150/242 145/151/243 146/152/245
f 82/141/229 83/103/159 75/165/157 147/163/247
f 147/153/248 75/101/157 76/98/154 148/154/249
f 76/98/154 77/97/153 78/109/165 148/154/250
f 148/154/249 78/109/165 79/106/162 149/155/251
f 79/106/162 80/105/161 81/143/231 149/155/252
f 149/155/251 81/143/231 82/164/229 147/153/248
f 147/153/248 148/154/249 149/155/251
f 95/127/185 96/118/174 88/162/172 150/159/253
f 150/156/254 88/116/172 89/113/169 151/157/255
f 89/113/169 90/112/168 91/124/181 151/157/256
f 151/157/255 91/124/181 92/161/180 152/160/257
f 92/121/177 93/211/176 94/130/188 152/158/258
f 152/158/257 94/130/188 95/127/185 150/159/254
f 150/156/254 151/157/255 152/160/257
f 18/220/24 133/136/207 20/227/25
f 20/227/25 133/136/207 128/62/116 5/33/203
f 140/104/160 12/36/201 17/219/23 129/137/208
f 129/137/208 17/219/23 19/226/26
