# 3ds Max Wavefront OBJ Exporter v0.97b - (c)2007 guruware
# File Created: 20.03.2019 13:49:52

#
# object corner_big
#

v  214.6296 63.6313 10.2051
v  214.6296 63.6313 60.2051
v  214.6296 4.6424 60.2051
v  214.6296 4.6424 10.2051
v  224.6296 70.0000 20.2050
v  224.6296 70.0000 60.2051
v  216.4727 70.0000 60.2051
v  216.4727 70.0000 12.0481
v  216.4727 66.5282 60.2051
v  216.4727 66.5282 12.0481
v  216.3815 66.4371 60.2051
v  216.3815 66.4371 11.9570
v  216.0089 66.4371 60.2051
v  216.0089 66.4371 11.5844
v  215.6141 66.0423 60.2051
v  215.6141 66.0423 11.1895
v  215.6141 64.1173 60.2051
v  215.6141 64.1173 11.1895
v  215.1281 63.6313 60.2051
v  215.1281 63.6313 10.7036
v  215.9653 4.6424 60.2051
v  215.9653 4.6424 11.5408
v  215.9653 1.0401 60.2051
v  215.9653 1.0401 11.5408
v  216.7165 1.0401 60.2051
v  216.7165 1.0401 12.2920
v  216.7165 -0.0000 60.2051
v  216.7165 -0.0000 12.2920
v  217.6718 -0.0000 60.2051
v  217.6718 -0.0000 13.2473
v  224.6296 0.0000 60.2051
v  224.6296 0.0000 20.2051
v  264.6296 4.6424 10.2051
v  264.6296 63.6313 10.2051
v  264.6296 70.0000 12.0482
v  264.6296 70.0000 20.2051
v  264.6296 66.5282 12.0482
v  264.6296 66.4371 11.9571
v  264.6296 66.4371 11.5844
v  264.6296 66.0423 11.1896
v  264.6296 64.1173 11.1896
v  264.6296 63.6313 10.7036
v  264.6296 4.6424 11.5408
v  264.6296 1.0401 11.5408
v  264.6296 1.0401 12.2920
v  264.6296 0.0000 12.2920
v  264.6296 0.0000 13.2474
v  264.6296 0.0000 20.2051
# 48 vertices

vn 0.5773 -0.5774 0.5773
vn 0.7071 -0.7071 0.0000
vn 0.7071 0.7071 0.0000
vn 0.5774 0.5773 0.5774
vn 0.0000 -1.0000 0.0000
vn 0.7071 -0.7071 -0.0000
vn 0.5774 -0.5774 0.5774
vn 0.9239 -0.3827 -0.0000
vn 0.5789 -0.5743 0.5789
vn 0.3827 -0.9239 0.0000
vn 0.1100 -0.9878 0.1100
vn 0.3826 -0.9239 0.0000
vn 0.3002 -0.9054 0.3002
vn 0.6507 -0.3914 0.6507
vn 0.9239 -0.3826 0.0000
vn 0.7071 0.7071 -0.0000
vn 0.3015 0.9045 0.3015
vn 0.5773 0.5774 0.5773
vn -0.0000 1.0000 -0.0000
vn -0.0000 0.7071 0.7071
vn -0.0000 -0.7071 0.7071
vn -0.0000 -0.3827 0.9239
vn -0.0000 -0.9239 0.3827
vn -0.0000 -0.3826 0.9239
# 24 vertex normals

vt 0.4556 0.5318 0.0000
vt 0.0071 0.5318 0.0000
vt 0.0071 0.0027 0.0000
vt 0.4556 0.0027 0.0000
vt 0.9306 0.9326 0.0000
vt 0.9306 0.6296 0.0000
vt 0.9924 0.6296 0.0000
vt 0.9924 0.9944 0.0000
vt 0.5783 0.5320 0.0000
vt 0.5783 0.9797 0.0000
vt 0.5460 0.9797 0.0000
vt 0.5460 0.5320 0.0000
vt 0.5452 0.9797 0.0000
vt 0.5452 0.5312 0.0000
vt 0.5417 0.9797 0.0000
vt 0.5417 0.5277 0.0000
vt 0.5380 0.9797 0.0000
vt 0.5380 0.5240 0.0000
vt 0.5202 0.9797 0.0000
vt 0.5202 0.5240 0.0000
vt 0.5156 0.9797 0.0000
vt 0.5156 0.5195 0.0000
vt 0.5110 0.9797 0.0000
vt 0.5110 0.5149 0.0000
vt 0.5802 0.0128 0.0000
vt 0.5802 0.4775 0.0000
vt 0.5678 0.4775 0.0000
vt 0.5678 0.0252 0.0000
vt 0.5343 0.4775 0.0000
vt 0.5343 0.0252 0.0000
vt 0.5273 0.4775 0.0000
vt 0.5273 0.0322 0.0000
vt 0.5177 0.4775 0.0000
vt 0.5177 0.0322 0.0000
vt 0.4519 0.9780 0.0000
vt 0.0109 0.9780 0.0000
vt 0.0109 0.9692 0.0000
vt 0.4432 0.9692 0.0000
vt 0.0109 0.9052 0.0000
vt 0.3791 0.9052 0.0000
vt 0.6276 0.9944 0.0000
vt 0.6276 0.9326 0.0000
vt 0.5783 0.9625 0.0000
vt 0.5460 0.9625 0.0000
vt 0.5460 0.5149 0.0000
vt 0.5783 0.5149 0.0000
vt 0.5452 0.9634 0.0000
vt 0.5452 0.5149 0.0000
vt 0.5417 0.9668 0.0000
vt 0.5417 0.5149 0.0000
vt 0.5380 0.9705 0.0000
vt 0.5380 0.5149 0.0000
vt 0.5202 0.9705 0.0000
vt 0.5202 0.5149 0.0000
vt 0.5156 0.9750 0.0000
vt 0.5156 0.5149 0.0000
vt 0.5678 0.4651 0.0000
vt 0.5678 0.0128 0.0000
vt 0.5343 0.4651 0.0000
vt 0.5343 0.0128 0.0000
vt 0.5273 0.4581 0.0000
vt 0.5273 0.0128 0.0000
vt 0.5177 0.4581 0.0000
vt 0.5177 0.0128 0.0000
vt 0.4432 0.5370 0.0000
vt 0.4519 0.5370 0.0000
vt 0.3791 0.5370 0.0000
# 67 texture coords

o corner_big
g corner_big
s 1
f 1/1/1 2/2/2 3/3/3 4/4/4 
f 5/5/5 6/6/5 7/7/6 8/8/7 
s 2
f 8/9/7 7/10/6 9/11/8 10/12/9 
s 1
f 10/12/9 9/11/8 11/13/10 12/14/11 
f 12/14/11 11/13/10 13/15/12 14/16/13 
s 2
f 14/16/13 13/15/12 15/17/8 16/18/14 
f 16/18/14 15/17/8 17/19/15 18/20/9 
s 1
f 18/20/9 17/19/15 19/21/10 20/22/11 
s 2
f 20/22/11 19/21/10 2/23/2 1/24/1 
f 4/25/4 3/26/3 21/27/16 22/28/17 
s 1
f 22/28/17 21/27/16 23/29/16 24/30/4 
s 2
f 24/30/4 23/29/16 25/31/16 26/32/17 
s 1
f 26/32/17 25/31/16 27/33/16 28/34/18 
s 2
f 28/35/18 27/36/16 29/37/19 30/38/19 
f 30/38/19 29/37/19 31/39/19 32/40/19 
s 4
f 1/2/1 4/3/4 33/4/20 34/1/21 
s 1
f 5/5/5 8/8/7 35/41/21 36/42/5 
s 4
f 8/43/7 10/44/9 37/45/22 35/46/21 
s 1
f 10/44/9 12/47/11 38/48/23 37/45/22 
f 12/47/11 14/49/13 39/50/23 38/48/23 
s 4
f 14/49/13 16/51/14 40/52/22 39/50/23 
f 16/51/14 18/53/9 41/54/24 40/52/22 
s 8
f 18/53/9 20/55/11 42/56/23 41/54/24 
s 2
f 20/55/11 1/23/1 34/24/21 42/56/23 
f 4/26/4 22/57/17 43/58/20 33/25/20 
s 4
f 22/57/17 24/59/4 44/60/20 43/58/20 
s 2
f 24/59/4 26/61/17 45/62/20 44/60/20 
s 4
f 26/61/17 28/63/18 46/64/20 45/62/20 
s 2
f 28/35/18 30/38/19 47/65/19 46/66/20 
f 30/38/19 32/40/19 48/67/19 47/65/19 
# 30 polygons

