# 3ds Max Wavefront OBJ Exporter v0.97b - (c)2007 guruware
# File Created: 20.03.2019 13:49:51

#
# object corner
#

v  224.6296 70.0000 70.2051
v  224.6296 70.0000 80.2051
v  216.4727 70.0000 72.0482
v  216.4727 70.0000 70.2051
v  216.4727 66.5282 72.0482
v  216.4727 66.5282 70.2051
v  216.3815 66.4371 71.9570
v  216.3816 66.4371 70.2051
v  216.0089 66.4371 71.5844
v  216.0090 66.4371 70.2051
v  215.6141 66.0423 71.1896
v  215.6141 66.0423 70.2051
v  215.6141 64.1173 71.1896
v  215.6141 64.1173 70.2051
v  215.1281 63.6313 70.7036
v  215.1281 63.6313 70.2051
v  214.6296 63.6313 70.2051
v  214.6296 4.6424 70.2051
v  215.9653 4.6424 71.5408
v  215.9654 4.6424 70.2051
v  215.9653 1.0401 71.5408
v  215.9654 1.0401 70.2051
v  216.7165 1.0401 72.2920
v  216.7165 1.0401 70.2051
v  216.7165 -0.0000 72.2920
v  216.7165 -0.0000 70.2051
v  217.6718 -0.0000 73.2473
v  217.6719 -0.0000 70.2051
v  224.6296 -0.0000 80.2051
v  224.6296 -0.0000 70.2051
v  214.6296 70.0000 80.2051
v  214.6296 70.0000 72.0482
v  214.6296 66.5282 72.0482
v  214.6296 66.4371 71.9571
v  214.6296 66.4371 71.5845
v  214.6296 66.0423 71.1896
v  214.6296 64.1173 71.1896
v  214.6296 63.6313 70.7036
v  214.6296 4.6424 71.5408
v  214.6296 1.0401 71.5409
v  214.6296 1.0401 72.2920
v  214.6296 -0.0000 72.2920
v  214.6296 -0.0000 73.2474
v  214.6296 -0.0000 80.2051
# 44 vertices

vn 0.0000 -1.0000 0.0000
vn 0.3015 -0.9045 0.3015
vn 0.7071 -0.7071 0.0000
vn 0.6507 -0.3914 0.6507
vn 0.9239 -0.3827 0.0000
vn 0.3002 -0.9054 0.3002
vn 0.3827 -0.9239 0.0000
vn 0.1101 -0.9878 0.1101
vn 0.3826 -0.9239 0.0000
vn 0.5789 -0.5743 0.5789
vn 0.9239 -0.3826 0.0000
vn -0.0000 -1.0000 -0.0000
vn 0.0000 1.0000 0.0000
vn 0.5773 0.5774 0.5774
vn 0.7071 0.7071 0.0000
vn 0.3015 0.9045 0.3015
vn 0.5773 0.5774 0.5773
vn -0.0000 1.0000 -0.0000
vn 0.0000 -0.7071 0.7071
vn 0.0000 -0.3827 0.9239
vn 0.0000 -0.9239 0.3826
vn 0.0000 -0.9239 0.3827
vn 0.0000 -0.3826 0.9239
vn 0.0000 0.7071 0.7071
# 24 vertex normals

vt 0.9166 0.9944 0.0000
vt 0.9166 0.9186 0.0000
vt 0.9784 0.9804 0.0000
vt 0.9784 0.9944 0.0000
vt 0.5783 0.9797 0.0000
vt 0.5783 0.9625 0.0000
vt 0.5460 0.9625 0.0000
vt 0.5460 0.9797 0.0000
vt 0.5452 0.9634 0.0000
vt 0.5452 0.9797 0.0000
vt 0.5417 0.9668 0.0000
vt 0.5417 0.9797 0.0000
vt 0.5380 0.9705 0.0000
vt 0.5380 0.9797 0.0000
vt 0.5202 0.9705 0.0000
vt 0.5202 0.9797 0.0000
vt 0.5156 0.9750 0.0000
vt 0.5156 0.9797 0.0000
vt 0.5110 0.9797 0.0000
vt 0.5802 0.4775 0.0000
vt 0.5678 0.4651 0.0000
vt 0.5678 0.4775 0.0000
vt 0.5343 0.4651 0.0000
vt 0.5343 0.4775 0.0000
vt 0.5273 0.4581 0.0000
vt 0.5273 0.4775 0.0000
vt 0.5177 0.4581 0.0000
vt 0.5177 0.4775 0.0000
vt 0.1029 0.9780 0.0000
vt 0.0837 0.9780 0.0000
vt 0.0749 0.9692 0.0000
vt 0.1029 0.9692 0.0000
vt 0.0109 0.9052 0.0000
vt 0.1029 0.9052 0.0000
vt 0.9924 0.9186 0.0000
vt 0.9924 0.9804 0.0000
vt 0.5783 0.5149 0.0000
vt 0.5460 0.5149 0.0000
vt 0.5460 0.5320 0.0000
vt 0.5783 0.5320 0.0000
vt 0.5452 0.5149 0.0000
vt 0.5452 0.5312 0.0000
vt 0.5417 0.5149 0.0000
vt 0.5417 0.5277 0.0000
vt 0.5380 0.5149 0.0000
vt 0.5380 0.5240 0.0000
vt 0.5202 0.5149 0.0000
vt 0.5202 0.5240 0.0000
vt 0.5156 0.5149 0.0000
vt 0.5156 0.5195 0.0000
vt 0.5110 0.5149 0.0000
vt 0.5802 0.0128 0.0000
vt 0.5678 0.0128 0.0000
vt 0.5678 0.0252 0.0000
vt 0.5343 0.0128 0.0000
vt 0.5343 0.0252 0.0000
vt 0.5273 0.0128 0.0000
vt 0.5273 0.0322 0.0000
vt 0.5177 0.0128 0.0000
vt 0.5177 0.0322 0.0000
vt 0.0837 0.9972 0.0000
vt 0.0749 0.9972 0.0000
vt 0.0109 0.9972 0.0000
# 63 texture coords

o corner
g corner
s 1
f 1/1/1 2/2/1 3/3/2 4/4/3 
s 2
f 4/5/3 3/6/2 5/7/4 6/8/5 
s 1
f 6/8/5 5/7/4 7/9/6 8/10/7 
f 8/10/7 7/9/6 9/11/8 10/12/9 
s 2
f 10/12/9 9/11/8 11/13/10 12/14/5 
s 1
f 12/14/5 11/13/10 13/15/4 14/16/11 
s 2
f 14/16/11 13/15/4 15/17/6 16/18/7 
f 16/18/7 15/17/6 17/19/12 
s 1
f 18/20/13 19/21/14 20/22/15 
s 2
f 20/22/15 19/21/14 21/23/16 22/24/15 
s 1
f 22/24/15 21/23/16 23/25/17 24/26/15 
s 2
f 24/26/15 23/25/17 25/27/16 26/28/15 
s 1
f 26/29/15 25/30/16 27/31/18 28/32/18 
f 28/32/18 27/31/18 29/33/18 30/34/18 
f 31/35/1 32/36/19 3/3/2 2/2/1 
s 4
f 32/37/19 33/38/20 5/39/4 3/40/2 
s 1
f 33/38/20 34/41/21 7/42/6 5/39/4 
f 34/41/21 35/43/22 9/44/8 7/42/6 
s 4
f 35/43/22 36/45/20 11/46/10 9/44/8 
s 8
f 36/45/20 37/47/23 13/48/4 11/46/10 
s 4
f 37/47/23 38/49/22 15/50/6 13/48/4 
s 2
f 38/49/22 17/51/12 15/50/6 
s 1
f 18/52/13 39/53/24 19/54/14 
s 4
f 39/53/24 40/55/24 21/56/16 19/54/14 
s 1
f 40/55/24 41/57/24 23/58/17 21/56/16 
s 4
f 41/57/24 42/59/24 25/60/16 23/58/17 
s 1
f 42/61/24 43/62/18 27/31/18 25/30/16 
f 43/62/18 44/63/18 29/33/18 27/31/18 
# 24 polygons - 4 triangles

