# 3ds Max Wavefront OBJ Exporter v0.97b - (c)2007 guruware
# File Created: 20.03.2019 13:49:53

#
# object door
#

v  84.6296 70.0000 120.2051
v  74.6296 70.0000 120.2051
v  74.6296 70.0000 112.0482
v  84.6296 70.0000 112.0482
v  74.6296 66.5282 112.0482
v  84.6296 66.5282 112.0482
v  74.6296 66.4371 111.9570
v  84.6296 66.4371 111.9570
v  74.6296 66.4371 111.5844
v  84.6296 66.4371 111.5844
v  74.6296 66.0423 111.1896
v  84.6296 66.0423 111.1896
v  74.6296 64.1173 111.1896
v  84.6296 64.1173 111.1896
v  74.6296 63.6313 110.7036
v  84.6296 63.6313 110.7036
v  74.6296 63.6313 110.2051
v  84.6296 63.6313 110.2051
v  74.6296 59.0548 110.2051
v  84.6296 59.0548 110.2051
v  84.6296 4.6424 110.2051
v  74.6296 4.6424 110.2051
v  74.6296 4.6424 111.5408
v  84.6296 4.6424 111.5408
v  74.6296 1.0401 111.5408
v  84.6296 1.0401 111.5408
v  74.6296 1.0401 112.2920
v  84.6296 1.0401 112.2920
v  74.6296 0.0000 112.2920
v  84.6296 0.0000 112.2920
v  74.6296 0.0000 113.2473
v  84.6296 0.0000 113.2473
v  74.6296 0.0000 120.2051
v  84.6296 0.0000 120.2051
v  44.6296 70.0000 120.2050
v  34.6296 70.0000 120.2050
v  34.6296 70.0000 112.0481
v  44.6296 70.0000 112.0481
v  34.6296 66.5282 112.0481
v  44.6296 66.5282 112.0481
v  34.6296 66.4371 111.9570
v  44.6296 66.4371 111.9570
v  34.6296 66.4371 111.5844
v  44.6296 66.4371 111.5844
v  34.6296 66.0423 111.1895
v  44.6296 66.0423 111.1895
v  34.6296 64.1173 111.1896
v  44.6296 64.1173 111.1896
v  34.6296 63.6313 110.7036
v  44.6296 63.6313 110.7036
v  34.6296 63.6313 110.2050
v  44.6296 63.6313 110.2050
v  34.6296 59.0548 110.2050
v  44.6296 59.0548 110.2050
v  44.6296 4.6424 110.2051
v  34.6296 4.6424 110.2050
v  34.6296 4.6424 111.5408
v  44.6296 4.6424 111.5408
v  34.6296 1.0401 111.5408
v  44.6296 1.0401 111.5408
v  34.6296 1.0401 112.2920
v  44.6296 1.0401 112.2920
v  34.6296 0.0000 112.2920
v  44.6296 0.0000 112.2920
v  34.6296 0.0000 113.2473
v  44.6296 0.0000 113.2473
v  34.6296 0.0000 120.2051
v  44.6296 0.0000 120.2051
v  73.3156 0.0000 113.2473
v  73.3156 0.0000 120.2051
v  74.6296 4.6424 110.2012
v  44.6296 4.6424 110.2012
v  44.6296 59.0548 110.1955
v  74.6296 59.0548 110.1955
v  74.6296 4.6424 112.2902
v  74.6296 1.0401 112.2944
v  74.6296 -0.0000 112.2960
v  44.6296 1.0401 112.2944
v  44.6296 4.6424 112.2902
v  44.6296 -0.0000 112.2960
v  44.6296 59.0548 112.2874
v  74.6296 59.0548 112.2874
v  73.3156 4.6424 112.2902
v  73.3156 1.0401 112.2944
v  73.3156 -0.0000 112.2960
v  45.9436 1.0401 112.2944
v  45.9436 4.6424 112.2902
v  45.9436 -0.0000 112.2960
v  45.9436 55.2994 112.2874
v  73.3156 55.2994 112.2874
v  73.3156 4.6424 110.2032
v  73.3156 1.0401 110.2075
v  73.3156 -0.0000 110.2090
v  45.9436 1.0401 110.2075
v  45.9436 4.6424 110.2032
v  45.9436 -0.0000 110.2090
v  45.9436 55.2994 110.2005
v  73.3156 55.2994 110.2005
v  45.9436 0.0000 113.2473
v  45.9436 0.0000 120.2051
# 100 vertices

vn -0.0000 -1.0000 0.0000
vn -0.0000 -0.7071 0.7071
vn -0.0000 -0.3827 0.9239
vn -0.0000 -0.9239 0.3827
vn -0.0000 -0.9239 0.3826
vn -0.0000 -0.3826 0.9239
vn -0.3013 -0.3015 0.9046
vn -0.0000 0.0000 1.0000
vn -0.0000 0.7071 0.7071
vn -0.3039 0.9037 0.3016
vn 0.4155 0.8616 0.2916
vn 0.5773 0.5774 0.5774
vn 0.0371 0.9405 0.3376
vn 0.5771 0.5774 0.5776
vn 0.0000 1.0000 -0.0000
vn 0.3013 -0.3015 0.9046
vn 0.5841 -0.5740 0.5739
vn -0.7704 -0.4264 0.4739
vn -0.5773 0.5773 0.5774
vn 0.0866 -0.5531 0.8286
vn -0.5776 0.5773 0.5772
vn -0.0016 0.5371 0.8435
vn 0.0037 -0.5371 -0.8435
vn 0.5334 0.0004 0.8458
vn -0.4835 0.0003 0.8753
vn 0.7072 0.0004 0.7070
vn 0.7069 0.0013 0.7074
vn 0.5769 -0.5773 0.5778
vn -0.7073 0.0007 0.7069
vn -0.7072 0.0004 0.7070
vn -0.5775 -0.5772 0.5774
vn -0.5773 0.5774 0.5774
vn -0.7071 0.0009 0.7071
vn -0.3011 0.9047 0.3014
vn 0.7071 0.0009 0.7071
vn 0.3011 0.9047 0.3014
vn 0.3016 -0.3015 0.9045
vn -0.3016 -0.3015 0.9045
vn -1.0000 -0.0000 -0.0000
vn -0.7074 0.7068 0.0000
vn 1.0000 -0.0000 0.0000
vn 1.0000 0.0000 0.0000
vn 0.7074 0.7068 0.0000
vn 0.7071 -0.7071 0.0000
vn -0.7071 -0.7071 0.0000
# 45 vertex normals

vt 0.9924 0.9944 0.0000
vt 0.9166 0.9944 0.0000
vt 0.9166 0.9326 0.0000
vt 0.9924 0.9326 0.0000
vt 0.5783 0.5149 0.0000
vt 0.5783 0.6078 0.0000
vt 0.5460 0.6078 0.0000
vt 0.5460 0.5149 0.0000
vt 0.5452 0.6078 0.0000
vt 0.5452 0.5149 0.0000
vt 0.5417 0.6078 0.0000
vt 0.5417 0.5149 0.0000
vt 0.5380 0.6078 0.0000
vt 0.5380 0.5149 0.0000
vt 0.5202 0.6078 0.0000
vt 0.5202 0.5149 0.0000
vt 0.5156 0.6078 0.0000
vt 0.5156 0.5149 0.0000
vt 0.5110 0.6078 0.0000
vt 0.5110 0.5149 0.0000
vt 0.4556 0.5318 0.0000
vt 0.3659 0.5318 0.0000
vt 0.3659 0.4908 0.0000
vt 0.4556 0.4908 0.0000
vt 0.5802 0.0128 0.0000
vt 0.5802 0.1057 0.0000
vt 0.5678 0.1057 0.0000
vt 0.5678 0.0128 0.0000
vt 0.5343 0.1057 0.0000
vt 0.5343 0.0128 0.0000
vt 0.5273 0.1057 0.0000
vt 0.5273 0.0128 0.0000
vt 0.5177 0.1057 0.0000
vt 0.5177 0.0128 0.0000
vt 0.4712 0.9780 0.0000
vt 0.3791 0.9780 0.0000
vt 0.3791 0.9692 0.0000
vt 0.4712 0.9692 0.0000
vt 0.3791 0.9052 0.0000
vt 0.4712 0.9052 0.0000
vt 0.6894 0.9944 0.0000
vt 0.6137 0.9944 0.0000
vt 0.6137 0.9326 0.0000
vt 0.6894 0.9326 0.0000
vt 0.5783 0.8867 0.0000
vt 0.5783 0.9797 0.0000
vt 0.5460 0.9797 0.0000
vt 0.5460 0.8867 0.0000
vt 0.5452 0.9797 0.0000
vt 0.5452 0.8867 0.0000
vt 0.5417 0.9797 0.0000
vt 0.5417 0.8867 0.0000
vt 0.5380 0.9797 0.0000
vt 0.5380 0.8867 0.0000
vt 0.5202 0.9797 0.0000
vt 0.5202 0.8867 0.0000
vt 0.5156 0.9797 0.0000
vt 0.5156 0.8867 0.0000
vt 0.5110 0.9797 0.0000
vt 0.5110 0.8867 0.0000
vt 0.0967 0.5318 0.0000
vt 0.0070 0.5318 0.0000
vt 0.0070 0.4908 0.0000
vt 0.0967 0.4908 0.0000
vt 0.5802 0.3846 0.0000
vt 0.5802 0.4775 0.0000
vt 0.5678 0.4775 0.0000
vt 0.5678 0.3846 0.0000
vt 0.5343 0.4775 0.0000
vt 0.5343 0.3846 0.0000
vt 0.5273 0.4775 0.0000
vt 0.5273 0.3846 0.0000
vt 0.5177 0.4775 0.0000
vt 0.5177 0.3846 0.0000
vt 0.1029 0.9780 0.0000
vt 0.0109 0.9780 0.0000
vt 0.0109 0.9692 0.0000
vt 0.1029 0.9692 0.0000
vt 0.0109 0.9052 0.0000
vt 0.1029 0.9052 0.0000
vt 0.3670 0.9692 0.0000
vt 0.3670 0.9052 0.0000
vt 0.3659 0.0025 0.0000
vt 0.4556 0.0025 0.0000
vt 0.0070 0.0025 0.0000
vt 0.0967 0.0025 0.0000
vt 0.5803 0.1057 0.0000
vt 0.9671 0.2593 0.0000
vt 0.9671 0.2076 0.0000
vt 0.9671 0.2594 0.0000
vt 0.6399 0.5845 0.0000
vt 0.9838 0.0220 0.0000
vt 0.9838 0.0582 0.0000
vt 0.9763 0.0582 0.0000
vt 0.9763 0.0220 0.0000
vt 0.6672 0.0582 0.0000
vt 0.6672 0.0220 0.0000
vt 0.6748 0.0220 0.0000
vt 0.6748 0.0582 0.0000
vt 0.5608 0.1057 0.0000
vt 0.9671 0.1787 0.0000
vt 0.6537 0.6051 0.0000
vt 0.6538 0.0582 0.0000
vt 0.6748 0.6051 0.0000
vt 0.9973 0.0582 0.0000
vt 0.9974 0.6051 0.0000
vt 0.9763 0.6051 0.0000
vt 0.9763 0.6262 0.0000
vt 0.6748 0.6262 0.0000
vt 0.9631 0.0582 0.0000
vt 0.9631 0.0220 0.0000
vt 0.9763 0.0115 0.0000
vt 0.9631 0.0115 0.0000
vt 0.6880 0.0220 0.0000
vt 0.6880 0.0582 0.0000
vt 0.6748 0.0115 0.0000
vt 0.6880 0.0115 0.0000
vt 0.6880 0.5674 0.0000
vt 0.9631 0.5674 0.0000
vt 0.9421 0.0582 0.0000
vt 0.9421 0.0220 0.0000
vt 0.9422 0.0115 0.0000
vt 0.7090 0.0220 0.0000
vt 0.7090 0.0582 0.0000
vt 0.7089 0.0115 0.0000
vt 0.7090 0.5674 0.0000
vt 0.9630 0.5674 0.0000
vt 0.9421 0.5674 0.0000
vt 0.6879 0.5674 0.0000
vt 0.6879 0.5464 0.0000
vt 0.9630 0.5464 0.0000
vt 0.1150 0.9972 0.0000
vt 0.1150 0.9780 0.0000
vt 0.3670 0.9780 0.0000
vt 0.3670 0.9972 0.0000
vt 0.1150 0.9692 0.0000
vt 0.1150 0.9052 0.0000
# 137 texture coords

o door
g door
s 1
f 1/1/1 2/2/1 3/3/2 4/4/2 
s 2
f 4/5/2 3/6/2 5/7/3 6/8/3 
s 1
f 6/8/3 5/7/3 7/9/4 8/10/4 
s 2
f 8/10/4 7/9/4 9/11/5 10/12/5 
s 1
f 10/12/5 9/11/5 11/13/6 12/14/6 
s 2
f 12/14/6 11/13/6 13/15/6 14/16/6 
s 1
f 14/16/6 13/15/6 15/17/5 16/18/5 
s 2
f 16/18/5 15/17/5 17/19/2 18/20/2 
s 1
f 18/21/2 17/22/2 19/23/7 20/24/8 
s 2
f 21/25/9 22/26/10 23/27/11 24/28/9 
s 1
f 24/28/9 23/27/11 25/29/12 26/30/9 
s 2
f 26/30/9 25/29/12 27/31/13 28/32/9 
s 1
f 28/32/9 27/31/13 29/33/14 30/34/9 
s 2
f 30/35/9 29/36/14 31/37/15 32/38/15 
f 32/38/15 31/37/15 33/39/15 34/40/15 
s 1
f 35/41/1 36/42/1 37/43/2 38/44/2 
s 2
f 38/45/2 37/46/2 39/47/3 40/48/3 
s 1
f 40/48/3 39/47/3 41/49/4 42/50/4 
s 2
f 42/50/4 41/49/4 43/51/5 44/52/5 
s 1
f 44/52/5 43/51/5 45/53/3 46/54/6 
s 2
f 46/54/6 45/53/3 47/55/6 48/56/6 
s 1
f 48/56/6 47/55/6 49/57/4 50/58/5 
s 2
f 50/58/5 49/57/4 51/59/2 52/60/2 
s 1
f 52/61/2 51/62/2 53/63/8 54/64/16 
s 2
f 55/65/17 56/66/9 57/67/9 58/68/18 
s 1
f 58/68/18 57/67/9 59/69/9 60/70/19 
s 2
f 60/70/19 59/69/9 61/71/9 62/72/20 
s 1
f 62/72/20 61/71/9 63/73/9 64/74/21 
s 2
f 64/75/21 63/76/9 65/77/15 66/78/15 
f 66/78/15 65/77/15 67/79/15 68/80/15 
s 1
f 2/2/1 35/41/1 38/44/2 3/3/2 
s 2
f 3/6/2 38/45/2 40/48/3 5/7/3 
s 1
f 5/7/3 40/48/3 42/50/4 7/9/4 
s 2
f 7/9/4 42/50/4 44/52/5 9/11/5 
s 1
f 9/11/5 44/52/5 46/54/6 11/13/6 
s 2
f 11/13/6 46/54/6 48/56/6 13/15/6 
s 1
f 13/15/6 48/56/6 50/58/5 15/17/5 
s 2
f 15/17/5 50/58/5 52/60/2 17/19/2 
s 1
f 17/22/2 52/61/2 54/64/16 19/23/7 
s 2
f 31/37/15 69/81/15 70/82/15 33/39/15 
s 1
f 19/23/7 22/83/10 21/84/9 20/24/8 
f 53/63/8 56/85/9 55/86/17 54/64/16 
s off
f 23/27/11 22/26/10 71/87/22 
f 55/88/17 58/89/18 72/90/23 
f 54/91/16 55/91/17 72/91/23 73/91/24 
f 22/91/10 19/91/7 74/91/25 71/91/22 
f 19/91/7 54/91/16 73/91/24 74/91/25 
f 25/92/12 23/93/11 75/94/26 76/95/27 
f 27/31/13 25/29/12 76/31/27 
f 29/91/14 27/91/13 76/91/27 77/91/28 
f 58/96/18 60/97/19 78/98/29 79/99/30 
f 60/91/19 62/91/20 78/91/29 
f 62/91/20 64/91/21 80/91/31 78/91/29 
f 23/27/11 71/87/22 75/100/26 
f 72/90/23 58/89/18 79/101/30 
f 73/102/24 72/103/23 79/99/30 81/104/32 
f 71/105/22 74/106/25 82/107/12 75/94/26 
f 74/108/25 73/109/24 81/104/32 82/107/12 
f 76/95/27 75/94/26 83/110/30 84/111/33 
f 77/112/28 76/95/27 84/111/33 85/113/34 
f 79/99/30 78/98/29 86/114/35 87/115/26 
f 78/98/29 80/116/31 88/117/36 86/114/35 
f 81/104/32 79/99/30 87/115/26 89/118/37 
f 75/94/26 82/107/12 90/119/38 83/110/30 
f 82/107/12 81/104/32 89/118/37 90/119/38 
f 84/111/33 83/110/30 91/120/39 92/121/39 
f 85/113/34 84/111/33 92/121/39 93/122/40 
f 87/115/26 86/114/35 94/123/41 95/124/42 
f 86/114/35 88/117/36 96/125/43 94/123/41 
f 89/118/37 87/115/26 95/124/42 97/126/44 
f 83/110/30 90/127/38 98/128/45 91/120/39 
f 90/127/38 89/129/37 97/130/44 98/131/45 
s 1
f 96/132/43 88/133/36 85/134/34 93/135/40 
s off
f 29/36/14 77/36/28 85/134/34 69/81/15 31/37/15 
f 85/134/34 88/133/36 99/136/15 69/81/15 
s 2
f 69/81/15 99/136/15 100/137/15 70/82/15 
s off
f 88/133/36 80/75/31 64/75/21 66/78/15 99/136/15 
s 2
f 99/136/15 66/78/15 68/80/15 100/137/15 
# 72 polygons - 6 triangles

