# 3ds Max Wavefront OBJ Exporter v0.97b - (c)2007 guruware
# File Created: 20.03.2019 13:49:48

#
# object floor_big
#

v  174.6296 0.0000 90.2051
v  174.6296 0.0000 120.2051
v  204.6296 0.0000 120.2051
v  204.6296 0.0000 90.2051
v  174.6296 70.0000 90.2051
v  204.6296 70.0000 90.2051
v  204.6296 70.0000 120.2051
v  174.6296 70.0000 120.2051
# 8 vertices

vn 0.0000 1.0000 -0.0000
vn 0.0000 -1.0000 -0.0000
# 2 vertex normals

vt 0.1029 0.9052 0.0000
vt 0.1029 0.6290 0.0000
vt 0.3791 0.6290 0.0000
vt 0.3791 0.9052 0.0000
vt 0.9306 0.7054 0.0000
vt 0.9306 0.9326 0.0000
vt 0.7034 0.9326 0.0000
vt 0.7034 0.7054 0.0000
# 8 texture coords

o floor_big
g floor_big
s 1
f 1/1/1 2/2/1 3/3/1 4/4/1 
f 5/5/2 6/6/2 7/7/2 8/8/2 
# 2 polygons

