# 3ds Max Wavefront OBJ Exporter v0.97b - (c)2007 guruware
# File Created: 20.03.2019 13:49:51

#
# object floor_small
#

v  154.6296 0.0000 110.2051
v  154.6296 0.0000 120.2051
v  164.6296 0.0000 120.2051
v  164.6296 0.0000 110.2051
v  154.6296 70.0000 110.2051
v  164.6296 70.0000 110.2051
v  164.6296 70.0000 120.2051
v  154.6296 70.0000 120.2051
# 8 vertices

vn 0.0000 1.0000 -0.0000
vn -0.0000 1.0000 -0.0000
vn 0.0000 -1.0000 -0.0000
# 3 vertex normals

vt 0.0109 0.6290 0.0000
vt 0.0109 0.5370 0.0000
vt 0.1029 0.5370 0.0000
vt 0.1029 0.6290 0.0000
vt 0.7791 0.7054 0.0000
vt 0.7791 0.7811 0.0000
vt 0.7034 0.7811 0.0000
vt 0.7034 0.7054 0.0000
# 8 texture coords

o floor_small
g floor_small
s 1
f 1/1/1 2/2/2 3/3/2 4/4/1 
f 5/5/3 6/6/3 7/7/3 8/8/3 
# 2 polygons

