# 3ds Max Wavefront OBJ Exporter v0.97b - (c)2007 guruware
# File Created: 20.03.2019 13:49:55

#
# object window_right
#

v  110.6794 70.0000 80.2051
v  110.6794 70.0000 72.0482
v  144.6296 70.0000 72.0482
v  144.6296 70.0000 80.2051
v  110.6794 66.5282 72.0482
v  144.6296 66.5282 72.0482
v  110.6794 66.4371 71.9570
v  144.6296 66.4371 71.9570
v  110.6794 66.4371 71.5844
v  144.6296 66.4371 71.5844
v  110.6794 66.0422 71.1896
v  144.6296 66.0422 71.1896
v  110.6794 64.1173 71.1896
v  144.6296 64.1173 71.1896
v  110.6794 63.6313 70.7036
v  144.6296 63.6313 70.7036
v  110.6794 63.6313 70.2051
v  144.6296 63.6313 70.2051
v  110.6794 54.3037 70.2051
v  144.6296 54.3037 70.2051
v  110.6794 4.6424 70.2051
v  110.6794 4.6424 71.5408
v  144.6296 4.6424 71.5408
v  144.6296 4.6424 70.2051
v  110.6794 1.0401 71.5408
v  144.6296 1.0401 71.5408
v  110.6794 1.0401 72.2920
v  144.6296 1.0401 72.2920
v  110.6794 -0.0000 72.2920
v  144.6296 -0.0000 72.2920
v  110.6794 -0.0000 73.2473
v  144.6296 -0.0000 73.2473
v  110.6794 -0.0000 80.2051
v  144.6296 -0.0000 80.2051
v  110.6794 20.7116 70.2051
v  144.6296 20.7116 70.2051
v  94.6296 20.7116 70.2051
v  94.6296 4.6424 70.2051
v  110.6794 54.3037 71.9404
v  110.6794 20.7116 71.9404
v  94.6296 20.7116 71.9404
v  109.4406 52.3298 71.9404
v  109.4406 22.6855 71.9404
v  94.6296 22.6855 71.9404
v  109.4406 52.3298 70.2051
v  109.4406 22.6855 70.2051
v  94.6296 22.6855 70.2051
v  94.6296 70.0000 80.2051
v  94.6296 70.0000 72.0482
v  94.6296 66.5282 72.0482
v  94.6296 66.4371 71.9571
v  94.6296 66.4371 71.5844
v  94.6296 66.0422 71.1896
v  94.6296 64.1173 71.1896
v  94.6296 63.6313 70.7036
v  94.6296 63.6313 70.2051
v  94.6296 54.3037 70.2051
v  94.6296 4.6424 71.5408
v  94.6296 1.0401 71.5408
v  94.6296 1.0401 72.2920
v  94.6296 -0.0000 72.2920
v  94.6296 -0.0000 73.2474
v  94.6296 -0.0000 80.2051
v  94.6296 54.3037 71.9404
v  94.6296 52.3298 71.9404
v  94.6296 52.3298 70.2051
# 66 vertices

vn -0.0000 -1.0000 0.0000
vn 0.0000 -0.7071 0.7071
vn 0.0000 -0.3827 0.9239
vn 0.0000 -0.9239 0.3827
vn 0.0000 -0.3826 0.9239
vn 0.0000 -0.9239 0.3826
vn 0.3015 0.3015 0.9045
vn 0.0000 0.0000 1.0000
vn 0.0000 0.7071 0.7071
vn -0.0000 1.0000 -0.0000
vn 0.3015 -0.3015 0.9045
vn 0.5774 0.5774 0.5773
vn 0.5774 -0.5774 0.5773
vn -0.3015 -0.3015 0.9045
vn -0.3015 0.3015 0.9045
vn -0.7071 -0.7071 0.0000
vn -0.7071 0.7071 0.0000
vn 0.0000 1.0000 -0.0000
# 18 vertex normals

vt 0.8708 0.9326 0.0000
vt 0.8708 0.9944 0.0000
vt 0.6137 0.9944 0.0000
vt 0.6137 0.9326 0.0000
vt 0.5783 0.8305 0.0000
vt 0.5460 0.8305 0.0000
vt 0.5460 0.5149 0.0000
vt 0.5783 0.5149 0.0000
vt 0.5452 0.8305 0.0000
vt 0.5452 0.5149 0.0000
vt 0.5417 0.8305 0.0000
vt 0.5417 0.5149 0.0000
vt 0.5380 0.8305 0.0000
vt 0.5380 0.5149 0.0000
vt 0.5202 0.8305 0.0000
vt 0.5202 0.5149 0.0000
vt 0.5156 0.8305 0.0000
vt 0.5156 0.5149 0.0000
vt 0.5110 0.8305 0.0000
vt 0.5110 0.5149 0.0000
vt 0.1515 0.5305 0.0000
vt 0.1515 0.4473 0.0000
vt 0.4545 0.4473 0.0000
vt 0.4545 0.5305 0.0000
vt 0.5802 0.3284 0.0000
vt 0.5678 0.3284 0.0000
vt 0.5678 0.0128 0.0000
vt 0.5802 0.0128 0.0000
vt 0.5343 0.3284 0.0000
vt 0.5343 0.0128 0.0000
vt 0.5273 0.3284 0.0000
vt 0.5273 0.0128 0.0000
vt 0.5177 0.3284 0.0000
vt 0.5177 0.0128 0.0000
vt 0.1586 0.9780 0.0000
vt 0.1586 0.9692 0.0000
vt 0.4712 0.9692 0.0000
vt 0.4712 0.9780 0.0000
vt 0.1586 0.9052 0.0000
vt 0.4712 0.9052 0.0000
vt 0.1515 0.1475 0.0000
vt 0.4545 0.1475 0.0000
vt 0.1515 0.0041 0.0000
vt 0.4545 0.0041 0.0000
vt 0.0082 0.1475 0.0000
vt 0.0082 0.0041 0.0000
vt 0.9769 0.2737 0.0000
vt 0.9769 0.2897 0.0000
vt 0.6666 0.2897 0.0000
vt 0.6666 0.2737 0.0000
vt 0.6506 0.2897 0.0000
vt 0.6666 0.4379 0.0000
vt 0.6506 0.4379 0.0000
vt 0.9586 0.3011 0.0000
vt 0.6849 0.3011 0.0000
vt 0.6849 0.4379 0.0000
vt 0.9586 0.3172 0.0000
vt 0.6849 0.3172 0.0000
vt 0.7009 0.4379 0.0000
vt 0.7009 0.3011 0.0000
vt 0.9924 0.9326 0.0000
vt 0.9924 0.9944 0.0000
vt 0.5783 0.9797 0.0000
vt 0.5460 0.9797 0.0000
vt 0.5452 0.9797 0.0000
vt 0.5417 0.9797 0.0000
vt 0.5380 0.9797 0.0000
vt 0.5202 0.9797 0.0000
vt 0.5156 0.9797 0.0000
vt 0.5110 0.9797 0.0000
vt 0.0082 0.5305 0.0000
vt 0.0082 0.4473 0.0000
vt 0.5802 0.4775 0.0000
vt 0.5678 0.4775 0.0000
vt 0.5343 0.4775 0.0000
vt 0.5273 0.4775 0.0000
vt 0.5177 0.4775 0.0000
vt 0.0109 0.9780 0.0000
vt 0.0109 0.9692 0.0000
vt 0.0109 0.9052 0.0000
vt 0.9929 0.2897 0.0000
vt 0.9929 0.4379 0.0000
vt 0.9769 0.4379 0.0000
vt 0.9586 0.4379 0.0000
vt 0.9426 0.4379 0.0000
vt 0.9426 0.3011 0.0000
# 86 texture coords

o window_right
g window_right
s 1
f 1/1/1 2/2/2 3/3/2 4/4/1 
s 2
f 2/5/2 5/6/3 6/7/3 3/8/2 
s 1
f 5/6/3 7/9/4 8/10/4 6/7/3 
s 2
f 7/9/4 9/11/4 10/12/4 8/10/4 
s 1
f 9/11/4 11/13/3 12/14/5 10/12/4 
s 2
f 11/13/3 13/15/3 14/16/3 12/14/5 
s 1
f 13/15/3 15/17/4 16/18/6 14/16/3 
s 2
f 15/17/4 17/19/2 18/20/2 16/18/6 
s 1
f 17/21/2 19/22/7 20/23/8 18/24/2 
s 2
f 21/25/9 22/26/9 23/27/9 24/28/9 
s 1
f 22/26/9 25/29/9 26/30/9 23/27/9 
s 2
f 25/29/9 27/31/9 28/32/9 26/30/9 
s 1
f 27/31/9 29/33/9 30/34/9 28/32/9 
s 2
f 29/35/9 31/36/10 32/37/10 30/38/9 
f 31/36/10 33/39/10 34/40/10 32/37/10 
s 1
f 20/23/8 19/22/7 35/41/11 36/42/8 
f 36/42/8 35/41/11 21/43/9 24/44/9 
f 35/41/11 37/45/2 38/46/9 21/43/9 
s off
f 19/47/7 39/48/12 40/49/13 35/50/11 
f 35/51/11 40/49/13 41/52/2 37/53/2 
f 39/48/12 42/54/14 43/55/15 40/49/13 
f 40/49/13 43/55/15 44/56/9 41/52/2 
f 42/54/14 45/57/16 46/58/17 43/55/15 
f 43/59/15 46/56/17 47/55/18 44/60/9 
s 1
f 48/61/1 49/62/2 2/2/2 1/1/1 
s 2
f 49/63/2 50/64/3 5/6/3 2/5/2 
s 1
f 50/64/3 51/65/4 7/9/4 5/6/3 
s 2
f 51/65/4 52/66/4 9/11/4 7/9/4 
s 1
f 52/66/4 53/67/5 11/13/3 9/11/4 
s 2
f 53/67/5 54/68/5 13/15/3 11/13/3 
s 1
f 54/68/5 55/69/4 15/17/4 13/15/3 
s 2
f 55/69/4 56/70/2 17/19/2 15/17/4 
s 1
f 56/71/2 57/72/9 19/22/7 17/21/2 
s 2
f 38/73/9 58/74/9 22/26/9 21/25/9 
s 1
f 58/74/9 59/75/9 25/29/9 22/26/9 
s 2
f 59/75/9 60/76/9 27/31/9 25/29/9 
s 1
f 60/76/9 61/77/9 29/33/9 27/31/9 
s 2
f 61/78/9 62/79/10 31/36/10 29/35/9 
f 62/79/10 63/80/10 33/39/10 31/36/10 
s off
f 57/48/9 64/81/9 39/82/12 19/83/7 
f 64/83/9 65/84/2 42/54/14 39/48/12 
f 65/84/2 66/85/1 45/86/16 42/54/14 
# 42 polygons

