# 3ds Max Wavefront OBJ Exporter v0.97b - (c)2007 guruware
# File Created: 20.03.2019 13:49:54

#
# object window_center
#

v  84.6296 70.0000 80.2051
v  71.4026 70.0000 80.2051
v  71.4026 70.0000 72.0482
v  84.6296 70.0000 72.0482
v  71.4026 66.5282 72.0482
v  84.6296 66.5282 72.0482
v  71.4026 66.4371 71.9570
v  84.6296 66.4371 71.9570
v  71.4026 66.4371 71.5844
v  84.6296 66.4371 71.5844
v  71.4026 66.0423 71.1896
v  84.6296 66.0423 71.1896
v  71.4026 64.1173 71.1896
v  84.6296 64.1173 71.1896
v  71.4026 63.6313 70.7036
v  84.6296 63.6313 70.7036
v  71.4026 63.6313 70.2051
v  84.6296 63.6313 70.2051
v  71.4026 54.3037 70.2051
v  84.6296 54.3037 70.2051
v  84.6296 4.6424 70.2051
v  71.4026 4.6424 70.2051
v  71.4026 4.6424 71.5408
v  84.6296 4.6424 71.5408
v  71.4026 1.0401 71.5408
v  84.6296 1.0401 71.5408
v  71.4026 1.0401 72.2920
v  84.6296 1.0401 72.2920
v  71.4026 -0.0000 72.2920
v  84.6296 -0.0000 72.2920
v  71.4026 -0.0000 73.2473
v  84.6296 -0.0000 73.2473
v  71.4026 0.0000 80.2051
v  84.6296 0.0000 80.2051
v  34.6296 4.6424 70.2051
v  47.8566 4.6424 70.2051
v  47.8566 20.7116 70.2051
v  34.6296 20.7116 70.2051
v  71.4026 54.3037 71.9404
v  84.6296 54.3037 71.9404
v  47.8566 20.7116 71.9404
v  34.6296 20.7116 71.9404
v  71.4026 52.3299 71.9404
v  84.6296 52.3299 71.9404
v  47.8566 22.6855 71.9404
v  34.6296 22.6855 71.9404
v  71.4026 52.3299 70.2051
v  84.6296 52.3299 70.2051
v  47.8566 22.6855 70.2051
v  34.6296 22.6855 70.2051
v  47.8566 70.0000 80.2051
v  34.6296 70.0000 80.2051
v  34.6296 70.0000 72.0482
v  47.8566 70.0000 72.0482
v  34.6296 66.5282 72.0482
v  47.8566 66.5282 72.0482
v  34.6296 66.4371 71.9570
v  47.8566 66.4371 71.9570
v  34.6296 66.4371 71.5844
v  47.8566 66.4371 71.5844
v  34.6296 66.0423 71.1896
v  47.8566 66.0423 71.1896
v  34.6296 64.1173 71.1896
v  47.8566 64.1173 71.1896
v  34.6296 63.6313 70.7036
v  47.8566 63.6313 70.7036
v  34.6296 63.6313 70.2051
v  47.8566 63.6313 70.2051
v  34.6296 54.3037 70.2051
v  47.8566 54.3037 70.2051
v  34.6296 4.6424 71.5408
v  47.8566 4.6424 71.5408
v  34.6296 1.0401 71.5408
v  47.8566 1.0401 71.5408
v  34.6296 1.0401 72.2920
v  47.8566 1.0401 72.2920
v  34.6296 -0.0000 72.2920
v  47.8566 -0.0000 72.2920
v  34.6296 -0.0000 73.2473
v  47.8566 -0.0000 73.2473
v  34.6296 0.0000 80.2051
v  47.8566 0.0000 80.2051
v  84.6296 20.7116 70.2051
v  71.4026 20.7116 70.2051
v  34.6296 54.3037 71.9404
v  47.8566 54.3037 71.9404
v  84.6296 20.7116 71.9404
v  71.4026 20.7116 71.9404
v  34.6296 52.3299 71.9404
v  47.8566 52.3299 71.9404
v  84.6296 22.6855 71.9404
v  71.4026 22.6855 71.9404
v  34.6296 52.3299 70.2051
v  47.8566 52.3299 70.2051
v  84.6296 22.6855 70.2051
v  71.4026 22.6855 70.2051
v  68.9579 70.0000 80.2051
v  50.3013 70.0000 80.2051
v  50.3013 70.0000 72.0482
v  68.9579 70.0000 72.0482
v  50.3013 66.5282 72.0482
v  68.9579 66.5282 72.0482
v  50.3013 66.4371 71.9570
v  68.9579 66.4371 71.9570
v  50.3013 66.4371 71.5844
v  68.9579 66.4371 71.5844
v  50.3013 66.0423 71.1896
v  68.9579 66.0423 71.1896
v  50.3013 64.1173 71.1896
v  68.9579 64.1173 71.1896
v  50.3013 63.6313 70.7036
v  68.9579 63.6313 70.7036
v  50.3013 63.6313 70.2051
v  68.9579 63.6313 70.2051
v  50.3013 54.3037 70.2051
v  68.9579 54.3037 70.2051
v  68.9579 4.6424 70.2051
v  50.3013 4.6424 70.2051
v  50.3013 4.6424 71.5408
v  68.9579 4.6424 71.5408
v  50.3013 1.0401 71.5408
v  68.9579 1.0401 71.5408
v  50.3013 1.0401 72.2920
v  68.9579 1.0401 72.2920
v  50.3013 -0.0000 72.2920
v  68.9579 -0.0000 72.2920
v  50.3013 -0.0000 73.2473
v  68.9579 -0.0000 73.2473
v  50.3013 0.0000 80.2051
v  68.9579 0.0000 80.2051
v  68.9579 20.7116 70.2051
v  50.3013 20.7116 70.2051
v  50.3013 54.3037 71.9404
v  68.9579 54.3037 71.9404
v  68.9579 20.7116 71.9404
v  50.3013 20.7116 71.9404
v  50.3013 52.3299 71.9404
v  68.9579 52.3299 71.9404
v  68.9579 22.6855 71.9404
v  50.3013 22.6855 71.9404
v  50.3013 52.3299 70.2051
v  68.9579 52.3299 70.2051
v  68.9579 22.6855 70.2051
v  50.3013 22.6855 70.2051
# 144 vertices

vn -0.0000 -1.0000 0.0000
vn -0.0000 -0.7071 0.7071
vn -0.0000 -0.3827 0.9239
vn -0.0000 -0.9239 0.3827
vn -0.0000 -0.9239 0.3826
vn -0.0000 -0.3826 0.9239
vn -0.0000 0.7071 0.7071
vn 0.0000 0.7071 0.7071
vn -0.0000 1.0000 -0.0000
vn 0.0000 1.0000 -0.0000
vn 0.3015 -0.3015 0.9045
vn -0.3015 0.3015 0.9045
vn 0.7071 -0.7071 -0.0000
vn -0.7071 0.7071 0.0000
vn -0.3015 -0.3015 0.9045
vn 0.3015 0.3015 0.9045
vn -0.7071 -0.7071 0.0000
vn 0.7071 0.7071 -0.0000
# 18 vertex normals

vt 0.9924 0.9944 0.0000
vt 0.8922 0.9944 0.0000
vt 0.8922 0.9326 0.0000
vt 0.9924 0.9326 0.0000
vt 0.5783 0.5149 0.0000
vt 0.5783 0.6378 0.0000
vt 0.5460 0.6378 0.0000
vt 0.5460 0.5149 0.0000
vt 0.5452 0.6378 0.0000
vt 0.5452 0.5149 0.0000
vt 0.5417 0.6378 0.0000
vt 0.5417 0.5149 0.0000
vt 0.5380 0.6378 0.0000
vt 0.5380 0.5149 0.0000
vt 0.5202 0.6378 0.0000
vt 0.5202 0.5149 0.0000
vt 0.5156 0.6378 0.0000
vt 0.5156 0.5149 0.0000
vt 0.5110 0.6378 0.0000
vt 0.5110 0.5149 0.0000
vt 0.4556 0.5318 0.0000
vt 0.3369 0.5318 0.0000
vt 0.3369 0.4482 0.0000
vt 0.4556 0.4482 0.0000
vt 0.5802 0.0128 0.0000
vt 0.5802 0.1357 0.0000
vt 0.5678 0.1357 0.0000
vt 0.5678 0.0128 0.0000
vt 0.5343 0.1357 0.0000
vt 0.5343 0.0128 0.0000
vt 0.5273 0.1357 0.0000
vt 0.5273 0.0128 0.0000
vt 0.5177 0.1357 0.0000
vt 0.5177 0.0128 0.0000
vt 0.4712 0.9780 0.0000
vt 0.3494 0.9780 0.0000
vt 0.3494 0.9692 0.0000
vt 0.4712 0.9692 0.0000
vt 0.3494 0.9052 0.0000
vt 0.4712 0.9052 0.0000
vt 0.0071 0.0028 0.0000
vt 0.1257 0.0028 0.0000
vt 0.1257 0.1469 0.0000
vt 0.0071 0.1469 0.0000
vt 0.9773 0.6258 0.0000
vt 0.9773 0.5030 0.0000
vt 0.9934 0.5030 0.0000
vt 0.9934 0.6258 0.0000
vt 0.6492 0.6258 0.0000
vt 0.6492 0.5030 0.0000
vt 0.6653 0.5030 0.0000
vt 0.6653 0.6258 0.0000
vt 0.9773 0.1615 0.0000
vt 0.9773 0.2844 0.0000
vt 0.9589 0.2844 0.0000
vt 0.9589 0.1615 0.0000
vt 0.6837 0.5030 0.0000
vt 0.6837 0.6258 0.0000
vt 0.9428 0.2844 0.0000
vt 0.9428 0.1615 0.0000
vt 0.6998 0.5030 0.0000
vt 0.6998 0.6258 0.0000
vt 0.7139 0.9944 0.0000
vt 0.6137 0.9944 0.0000
vt 0.6137 0.9326 0.0000
vt 0.7139 0.9326 0.0000
vt 0.5783 0.8567 0.0000
vt 0.5783 0.9797 0.0000
vt 0.5460 0.9797 0.0000
vt 0.5460 0.8567 0.0000
vt 0.5452 0.9797 0.0000
vt 0.5452 0.8567 0.0000
vt 0.5417 0.9797 0.0000
vt 0.5417 0.8567 0.0000
vt 0.5380 0.9797 0.0000
vt 0.5380 0.8567 0.0000
vt 0.5202 0.9797 0.0000
vt 0.5202 0.8567 0.0000
vt 0.5156 0.9797 0.0000
vt 0.5156 0.8567 0.0000
vt 0.5110 0.9797 0.0000
vt 0.5110 0.8567 0.0000
vt 0.1257 0.5318 0.0000
vt 0.0071 0.5318 0.0000
vt 0.0071 0.4482 0.0000
vt 0.1257 0.4482 0.0000
vt 0.5802 0.3546 0.0000
vt 0.5802 0.4775 0.0000
vt 0.5678 0.4775 0.0000
vt 0.5678 0.3546 0.0000
vt 0.5343 0.4775 0.0000
vt 0.5343 0.3546 0.0000
vt 0.5273 0.4775 0.0000
vt 0.5273 0.3546 0.0000
vt 0.5177 0.4775 0.0000
vt 0.5177 0.3546 0.0000
vt 0.1326 0.9780 0.0000
vt 0.0109 0.9780 0.0000
vt 0.0109 0.9692 0.0000
vt 0.1326 0.9692 0.0000
vt 0.0109 0.9052 0.0000
vt 0.1326 0.9052 0.0000
vt 0.3369 0.0028 0.0000
vt 0.4556 0.0028 0.0000
vt 0.4556 0.1469 0.0000
vt 0.3369 0.1469 0.0000
vt 0.9934 0.1615 0.0000
vt 0.9934 0.2844 0.0000
vt 0.6492 0.2844 0.0000
vt 0.6492 0.1615 0.0000
vt 0.6653 0.1615 0.0000
vt 0.6653 0.2844 0.0000
vt 0.9589 0.6258 0.0000
vt 0.9589 0.5030 0.0000
vt 0.6837 0.1615 0.0000
vt 0.6837 0.2844 0.0000
vt 0.9436 0.6258 0.0000
vt 0.9436 0.5030 0.0000
vt 0.6998 0.1615 0.0000
vt 0.6998 0.2844 0.0000
vt 0.8737 0.9944 0.0000
vt 0.7324 0.9944 0.0000
vt 0.7324 0.9326 0.0000
vt 0.8737 0.9326 0.0000
vt 0.5783 0.6606 0.0000
vt 0.5783 0.8340 0.0000
vt 0.5460 0.8340 0.0000
vt 0.5460 0.6606 0.0000
vt 0.5452 0.8340 0.0000
vt 0.5452 0.6606 0.0000
vt 0.5417 0.8340 0.0000
vt 0.5417 0.6606 0.0000
vt 0.5380 0.8340 0.0000
vt 0.5380 0.6606 0.0000
vt 0.5202 0.8340 0.0000
vt 0.5202 0.6606 0.0000
vt 0.5156 0.8340 0.0000
vt 0.5156 0.6606 0.0000
vt 0.5110 0.8340 0.0000
vt 0.5110 0.6606 0.0000
vt 0.3150 0.5318 0.0000
vt 0.1477 0.5318 0.0000
vt 0.1477 0.4482 0.0000
vt 0.3150 0.4482 0.0000
vt 0.5802 0.1584 0.0000
vt 0.5802 0.3319 0.0000
vt 0.5678 0.3319 0.0000
vt 0.5678 0.1584 0.0000
vt 0.5343 0.3319 0.0000
vt 0.5343 0.1584 0.0000
vt 0.5273 0.3319 0.0000
vt 0.5273 0.1584 0.0000
vt 0.5177 0.3319 0.0000
vt 0.5177 0.1584 0.0000
vt 0.3269 0.9780 0.0000
vt 0.1552 0.9780 0.0000
vt 0.1552 0.9692 0.0000
vt 0.3269 0.9692 0.0000
vt 0.1552 0.9052 0.0000
vt 0.3269 0.9052 0.0000
vt 0.1477 0.0028 0.0000
vt 0.3150 0.0028 0.0000
vt 0.3150 0.1469 0.0000
vt 0.1477 0.1469 0.0000
vt 0.9773 0.4803 0.0000
vt 0.9773 0.3071 0.0000
vt 0.9934 0.3071 0.0000
vt 0.9934 0.4803 0.0000
vt 0.6492 0.4803 0.0000
vt 0.6492 0.3071 0.0000
vt 0.6653 0.3071 0.0000
vt 0.6653 0.4803 0.0000
vt 0.9589 0.4803 0.0000
vt 0.9589 0.3071 0.0000
vt 0.6837 0.3071 0.0000
vt 0.6837 0.4803 0.0000
vt 0.9428 0.4803 0.0000
vt 0.9428 0.3071 0.0000
vt 0.6998 0.3071 0.0000
vt 0.6998 0.4803 0.0000
vt 0.6837 0.2682 0.0000
vt 0.9589 0.2682 0.0000
vt 0.6837 0.3232 0.0000
vt 0.9589 0.3232 0.0000
vt 0.6837 0.5191 0.0000
vt 0.9589 0.5191 0.0000
vt 0.9589 0.4642 0.0000
vt 0.6837 0.4642 0.0000
# 188 texture coords

o window_center
g window_center
s 1
f 1/1/1 2/2/1 3/3/2 4/4/2 
s 2
f 4/5/2 3/6/2 5/7/3 6/8/3 
s 1
f 6/8/3 5/7/3 7/9/4 8/10/4 
s 2
f 8/10/4 7/9/4 9/11/5 10/12/4 
s 1
f 10/12/4 9/11/5 11/13/3 12/14/6 
s 2
f 12/14/6 11/13/3 13/15/6 14/16/3 
s 1
f 14/16/3 13/15/6 15/17/4 16/18/5 
s 2
f 16/18/5 15/17/4 17/19/2 18/20/2 
s 1
f 18/21/2 17/22/2 19/23/7 20/24/7 
f 21/25/8 22/26/7 23/27/7 24/28/7 
s 2
f 24/28/7 23/27/7 25/29/7 26/30/7 
s 1
f 26/30/7 25/29/7 27/31/8 28/32/7 
s 2
f 28/32/7 27/31/8 29/33/7 30/34/7 
s 1
f 30/35/7 29/36/7 31/37/9 32/38/9 
f 32/38/9 31/37/9 33/39/10 34/40/10 
s 2
f 35/41/8 36/42/7 37/43/2 38/44/2 
f 20/45/7 19/46/7 39/47/7 40/48/7 
s 1
f 38/49/2 37/50/2 41/51/2 42/52/2 
f 40/53/7 39/54/7 43/55/11 44/56/2 
s 2
f 42/52/2 41/51/2 45/57/12 46/58/7 
f 44/59/2 43/60/11 47/56/13 48/55/1 
s 1
f 46/61/7 45/62/12 49/58/14 50/57/10 
f 51/63/1 52/64/1 53/65/2 54/66/2 
s 2
f 54/67/2 53/68/2 55/69/3 56/70/3 
s 1
f 56/70/3 55/69/3 57/71/4 58/72/4 
s 2
f 58/72/4 57/71/4 59/73/5 60/74/4 
s 1
f 60/74/4 59/73/5 61/75/3 62/76/6 
s 2
f 62/76/6 61/75/3 63/77/6 64/78/3 
s 1
f 64/78/3 63/77/6 65/79/4 66/80/5 
s 2
f 66/80/5 65/79/4 67/81/2 68/82/2 
s 1
f 68/83/2 67/84/2 69/85/7 70/86/7 
f 36/87/7 35/88/8 71/89/7 72/90/7 
s 2
f 72/90/7 71/89/7 73/91/7 74/92/7 
s 1
f 74/92/7 73/91/7 75/93/7 76/94/8 
s 2
f 76/94/8 75/93/7 77/95/7 78/96/7 
s 1
f 78/97/7 77/98/7 79/99/9 80/100/9 
f 80/100/9 79/99/9 81/101/10 82/102/10 
s 2
f 22/103/7 21/104/8 83/105/2 84/106/2 
f 70/54/7 69/53/7 85/107/7 86/108/7 
s 1
f 84/109/2 83/110/2 87/111/2 88/112/2 
f 86/46/7 85/45/7 89/113/2 90/114/15 
s 2
f 88/112/2 87/111/2 91/115/7 92/116/16 
f 90/117/15 89/118/2 93/114/1 94/113/17 
s 1
f 92/119/16 91/120/7 95/116/10 96/115/18 
f 97/121/1 98/122/1 99/123/2 100/124/2 
s 2
f 100/125/2 99/126/2 101/127/3 102/128/3 
s 1
f 102/128/3 101/127/3 103/129/4 104/130/4 
s 2
f 104/130/4 103/129/4 105/131/5 106/132/4 
s 1
f 106/132/4 105/131/5 107/133/3 108/134/6 
s 2
f 108/134/6 107/133/3 109/135/6 110/136/3 
s 1
f 110/136/3 109/135/6 111/137/4 112/138/5 
s 2
f 112/138/5 111/137/4 113/139/2 114/140/2 
s 1
f 114/141/2 113/142/2 115/143/7 116/144/7 
f 117/145/7 118/146/7 119/147/7 120/148/7 
s 2
f 120/148/7 119/147/7 121/149/7 122/150/7 
s 1
f 122/150/7 121/149/7 123/151/8 124/152/8 
s 2
f 124/152/8 123/151/8 125/153/8 126/154/8 
s 1
f 126/155/8 125/156/8 127/157/10 128/158/10 
f 128/158/10 127/157/10 129/159/10 130/160/10 
s 2
f 118/161/7 117/162/7 131/163/2 132/164/2 
f 116/165/7 115/166/7 133/167/7 134/168/7 
s 1
f 132/169/2 131/170/2 135/171/2 136/172/2 
f 134/166/7 133/165/7 137/173/11 138/174/15 
s 2
f 136/172/2 135/171/2 139/175/12 140/176/16 
f 138/174/15 137/173/11 141/177/13 142/178/17 
s 1
f 140/176/16 139/175/12 143/179/14 144/180/18 
f 2/2/1 97/121/1 100/124/2 3/3/2 
s 2
f 3/6/2 100/125/2 102/128/3 5/7/3 
s 1
f 5/7/3 102/128/3 104/130/4 7/9/4 
s 2
f 7/9/4 104/130/4 106/132/4 9/11/5 
s 1
f 9/11/5 106/132/4 108/134/6 11/13/3 
s 2
f 11/13/3 108/134/6 110/136/3 13/15/6 
s 1
f 13/15/6 110/136/3 112/138/5 15/17/4 
s 2
f 15/17/4 112/138/5 114/140/2 17/19/2 
s 1
f 17/22/2 114/141/2 116/144/7 19/23/7 
f 22/26/7 117/145/7 120/148/7 23/27/7 
s 2
f 23/27/7 120/148/7 122/150/7 25/29/7 
s 1
f 25/29/7 122/150/7 124/152/8 27/31/8 
s 2
f 27/31/8 124/152/8 126/154/8 29/33/7 
s 1
f 29/36/7 126/155/8 128/158/10 31/37/9 
f 31/37/9 128/158/10 130/160/10 33/39/10 
s 2
f 36/42/7 118/161/7 132/164/2 37/43/2 
f 19/46/7 116/165/7 134/168/7 39/47/7 
s 1
f 37/50/2 132/169/2 136/172/2 41/51/2 
f 39/54/7 134/166/7 138/174/15 43/55/11 
s 2
f 41/51/2 136/172/2 140/176/16 45/57/12 
s 1
f 98/122/1 51/63/1 54/66/2 99/123/2 
s 2
f 99/126/2 54/67/2 56/70/3 101/127/3 
s 1
f 101/127/3 56/70/3 58/72/4 103/129/4 
s 2
f 103/129/4 58/72/4 60/74/4 105/131/5 
s 1
f 105/131/5 60/74/4 62/76/6 107/133/3 
s 2
f 107/133/3 62/76/6 64/78/3 109/135/6 
s 1
f 109/135/6 64/78/3 66/80/5 111/137/4 
s 2
f 111/137/4 66/80/5 68/82/2 113/139/2 
s 1
f 113/142/2 68/83/2 70/86/7 115/143/7 
f 118/146/7 36/87/7 72/90/7 119/147/7 
s 2
f 119/147/7 72/90/7 74/92/7 121/149/7 
s 1
f 121/149/7 74/92/7 76/94/8 123/151/8 
s 2
f 123/151/8 76/94/8 78/96/7 125/153/8 
s 1
f 125/156/8 78/97/7 80/100/9 127/157/10 
f 127/157/10 80/100/9 82/102/10 129/159/10 
s 2
f 117/162/7 22/103/7 84/106/2 131/163/2 
f 115/166/7 70/54/7 86/108/7 133/167/7 
s 1
f 131/170/2 84/109/2 88/112/2 135/171/2 
f 133/165/7 86/46/7 90/114/15 137/173/11 
s 2
f 135/171/2 88/112/2 92/116/16 139/175/12 
s 4
f 92/116/16 96/181/18 47/182/13 43/55/11 
s 8
f 139/175/12 92/116/16 43/55/11 138/174/15 
s 4
f 143/183/14 139/175/12 138/174/15 142/184/17 
f 90/185/15 94/57/17 49/114/14 45/186/12 
s 8
f 137/173/11 90/114/15 45/57/12 140/176/16 
s 4
f 141/187/13 137/173/11 140/176/16 144/188/18 
# 112 polygons

