# 3ds Max Wavefront OBJ Exporter v0.97b - (c)2007 guruware
# File Created: 20.03.2019 13:49:53

#
# object window
#

v  144.6296 70.0000 120.2051
v  130.7177 70.0000 120.2050
v  130.7177 70.0000 112.0481
v  144.6296 70.0000 112.0482
v  130.7177 66.5282 112.0481
v  144.6296 66.5282 112.0482
v  130.7177 66.4371 111.9570
v  144.6296 66.4371 111.9570
v  130.7177 66.4371 111.5844
v  144.6296 66.4371 111.5844
v  130.7177 66.0423 111.1895
v  144.6296 66.0423 111.1896
v  130.7177 64.1173 111.1896
v  144.6296 64.1173 111.1896
v  130.7177 63.6313 110.7036
v  144.6296 63.6313 110.7036
v  130.7177 63.6313 110.2050
v  144.6296 63.6313 110.2051
v  130.7178 54.3037 110.2051
v  144.6296 54.3037 110.2051
v  144.6296 4.6424 110.2051
v  130.7178 4.6424 110.2051
v  130.7177 4.6424 111.5408
v  144.6296 4.6424 111.5408
v  130.7177 1.0401 111.5408
v  144.6296 1.0401 111.5408
v  130.7177 1.0401 112.2920
v  144.6296 1.0401 112.2920
v  130.7177 0.0000 112.2920
v  144.6296 0.0000 112.2920
v  130.7177 0.0000 113.2473
v  144.6296 0.0000 113.2473
v  130.7177 0.0000 120.2051
v  144.6296 0.0000 120.2051
v  108.5415 70.0000 120.2050
v  94.6296 70.0000 120.2050
v  94.6296 70.0000 112.0481
v  108.5415 70.0000 112.0481
v  94.6296 66.5282 112.0481
v  108.5415 66.5282 112.0481
v  94.6296 66.4371 111.9570
v  108.5415 66.4371 111.9570
v  94.6296 66.4371 111.5844
v  108.5415 66.4371 111.5844
v  94.6296 66.0423 111.1895
v  108.5415 66.0423 111.1895
v  94.6296 64.1173 111.1895
v  108.5415 64.1173 111.1895
v  94.6296 63.6313 110.7036
v  108.5415 63.6313 110.7036
v  94.6296 63.6313 110.2050
v  108.5415 63.6313 110.2050
v  94.6296 54.3037 110.2050
v  108.5415 54.3037 110.2050
v  108.5415 4.6424 110.2050
v  94.6296 4.6424 110.2050
v  94.6296 4.6424 111.5408
v  108.5415 4.6424 111.5408
v  94.6296 1.0401 111.5408
v  108.5415 1.0401 111.5408
v  94.6296 1.0401 112.2920
v  108.5415 1.0401 112.2920
v  94.6296 0.0000 112.2920
v  108.5415 0.0000 112.2920
v  94.6296 0.0000 113.2473
v  108.5415 0.0000 113.2473
v  94.6296 0.0000 120.2050
v  108.5415 0.0000 120.2050
v  130.7178 20.7117 110.2051
v  144.6296 20.7117 110.2051
v  94.6296 20.7117 110.2050
v  108.5415 20.7117 110.2050
v  108.5415 20.7117 111.9404
v  108.5415 54.3037 111.9404
v  130.7178 54.3037 111.9404
v  130.7178 20.7117 111.9404
v  109.7803 22.6855 111.9404
v  109.7803 52.3299 111.9404
v  129.4790 52.3299 111.9404
v  129.4790 22.6855 111.9404
v  109.7803 22.6855 110.2050
v  109.7803 52.3299 110.2050
v  129.4790 52.3299 110.2050
v  129.4790 22.6855 110.2050
# 84 vertices

vn -0.0000 -1.0000 0.0000
vn -0.0000 -0.7071 0.7071
vn -0.0000 -0.3827 0.9239
vn -0.0000 -0.9239 0.3827
vn -0.0000 -0.9239 0.3826
vn -0.0000 -0.3826 0.9239
vn 0.3015 0.3015 0.9045
vn -0.0000 0.0000 1.0000
vn -0.0000 0.7071 0.7071
vn 0.0000 1.0000 -0.0000
vn -0.3015 0.3015 0.9045
vn 0.3015 -0.3015 0.9045
vn -0.0000 -0.0000 1.0000
vn -0.3015 -0.3015 0.9045
vn -0.5774 -0.5774 0.5773
vn -0.5774 0.5774 0.5774
vn 0.5774 0.5774 0.5774
vn 0.5774 -0.5774 0.5774
vn 0.7071 0.7071 -0.0000
vn 0.7071 -0.7071 0.0000
vn -0.7071 -0.7071 0.0000
vn -0.7071 0.7071 0.0000
# 22 vertex normals

vt 0.9924 0.9944 0.0000
vt 0.8870 0.9944 0.0000
vt 0.8870 0.9326 0.0000
vt 0.9924 0.9326 0.0000
vt 0.5783 0.5149 0.0000
vt 0.5783 0.6442 0.0000
vt 0.5460 0.6442 0.0000
vt 0.5460 0.5149 0.0000
vt 0.5452 0.6442 0.0000
vt 0.5452 0.5149 0.0000
vt 0.5417 0.6442 0.0000
vt 0.5417 0.5149 0.0000
vt 0.5380 0.6442 0.0000
vt 0.5380 0.5149 0.0000
vt 0.5202 0.6442 0.0000
vt 0.5202 0.5149 0.0000
vt 0.5156 0.6442 0.0000
vt 0.5156 0.5149 0.0000
vt 0.5110 0.6442 0.0000
vt 0.5110 0.5149 0.0000
vt 0.4556 0.5318 0.0000
vt 0.3308 0.5318 0.0000
vt 0.3308 0.4482 0.0000
vt 0.4556 0.4482 0.0000
vt 0.5802 0.0128 0.0000
vt 0.5802 0.1421 0.0000
vt 0.5678 0.1421 0.0000
vt 0.5678 0.0128 0.0000
vt 0.5343 0.1421 0.0000
vt 0.5343 0.0128 0.0000
vt 0.5273 0.1421 0.0000
vt 0.5273 0.0128 0.0000
vt 0.5177 0.1421 0.0000
vt 0.5177 0.0128 0.0000
vt 0.4712 0.9780 0.0000
vt 0.3266 0.9780 0.0000
vt 0.3431 0.9692 0.0000
vt 0.4712 0.9692 0.0000
vt 0.3431 0.9052 0.0000
vt 0.4712 0.9052 0.0000
vt 0.7190 0.9944 0.0000
vt 0.6137 0.9944 0.0000
vt 0.6137 0.9326 0.0000
vt 0.7190 0.9326 0.0000
vt 0.5783 0.8503 0.0000
vt 0.5783 0.9797 0.0000
vt 0.5460 0.9797 0.0000
vt 0.5460 0.8503 0.0000
vt 0.5452 0.9797 0.0000
vt 0.5452 0.8503 0.0000
vt 0.5417 0.9797 0.0000
vt 0.5417 0.8503 0.0000
vt 0.5380 0.9797 0.0000
vt 0.5380 0.8503 0.0000
vt 0.5202 0.9797 0.0000
vt 0.5202 0.8503 0.0000
vt 0.5156 0.9797 0.0000
vt 0.5156 0.8503 0.0000
vt 0.5110 0.9797 0.0000
vt 0.5110 0.8503 0.0000
vt 0.1319 0.5318 0.0000
vt 0.0072 0.5318 0.0000
vt 0.0072 0.4482 0.0000
vt 0.1319 0.4482 0.0000
vt 0.5802 0.3482 0.0000
vt 0.5802 0.4775 0.0000
vt 0.5678 0.4775 0.0000
vt 0.5678 0.3482 0.0000
vt 0.5343 0.4775 0.0000
vt 0.5343 0.3482 0.0000
vt 0.5273 0.4775 0.0000
vt 0.5273 0.3482 0.0000
vt 0.5177 0.4775 0.0000
vt 0.5177 0.3482 0.0000
vt 0.1555 0.9780 0.0000
vt 0.0109 0.9780 0.0000
vt 0.0109 0.9692 0.0000
vt 0.1390 0.9692 0.0000
vt 0.0109 0.9052 0.0000
vt 0.1390 0.9052 0.0000
vt 0.3308 0.1469 0.0000
vt 0.4556 0.1469 0.0000
vt 0.0072 0.1469 0.0000
vt 0.1319 0.1469 0.0000
vt 0.3308 0.0028 0.0000
vt 0.4556 0.0028 0.0000
vt 0.0072 0.0028 0.0000
vt 0.1319 0.0028 0.0000
vt 0.6588 0.2677 0.0000
vt 0.9791 0.2677 0.0000
vt 0.9791 0.2842 0.0000
vt 0.6588 0.2842 0.0000
vt 0.9791 0.5122 0.0000
vt 0.6588 0.5122 0.0000
vt 0.6588 0.4956 0.0000
vt 0.9791 0.4956 0.0000
vt 0.6423 0.4956 0.0000
vt 0.6423 0.2842 0.0000
vt 0.9956 0.2842 0.0000
vt 0.9956 0.4956 0.0000
vt 0.9603 0.2960 0.0000
vt 0.6777 0.2960 0.0000
vt 0.6777 0.4838 0.0000
vt 0.9603 0.4838 0.0000
vt 0.9603 0.3126 0.0000
vt 0.6777 0.3126 0.0000
vt 0.6777 0.4673 0.0000
vt 0.9603 0.4673 0.0000
vt 0.6942 0.2960 0.0000
vt 0.6942 0.4838 0.0000
vt 0.9437 0.4838 0.0000
vt 0.9437 0.2960 0.0000
# 112 texture coords

o window
g window
s 1
f 1/1/1 2/2/1 3/3/2 4/4/2 
s 2
f 4/5/2 3/6/2 5/7/3 6/8/3 
s 1
f 6/8/3 5/7/3 7/9/4 8/10/4 
s 2
f 8/10/4 7/9/4 9/11/5 10/12/5 
s 1
f 10/12/5 9/11/5 11/13/6 12/14/6 
s 2
f 12/14/6 11/13/6 13/15/6 14/16/6 
s 1
f 14/16/6 13/15/6 15/17/5 16/18/5 
s 2
f 16/18/5 15/17/5 17/19/2 18/20/2 
s 1
f 18/21/2 17/22/2 19/23/7 20/24/8 
s 2
f 21/25/9 22/26/9 23/27/9 24/28/9 
s 1
f 24/28/9 23/27/9 25/29/9 26/30/9 
s 2
f 26/30/9 25/29/9 27/31/9 28/32/9 
s 1
f 28/32/9 27/31/9 29/33/9 30/34/9 
s 2
f 30/35/9 29/36/9 31/37/10 32/38/10 
f 32/38/10 31/37/10 33/39/10 34/40/10 
s 1
f 35/41/1 36/42/1 37/43/2 38/44/2 
s 2
f 38/45/2 37/46/2 39/47/3 40/48/3 
s 1
f 40/48/3 39/47/3 41/49/4 42/50/4 
s 2
f 42/50/4 41/49/4 43/51/5 44/52/5 
s 1
f 44/52/5 43/51/5 45/53/3 46/54/6 
s 2
f 46/54/6 45/53/3 47/55/6 48/56/6 
s 1
f 48/56/6 47/55/6 49/57/4 50/58/5 
s 2
f 50/58/5 49/57/4 51/59/2 52/60/2 
s 1
f 52/61/2 51/62/2 53/63/8 54/64/11 
s 2
f 55/65/9 56/66/9 57/67/9 58/68/9 
s 1
f 58/68/9 57/67/9 59/69/9 60/70/9 
s 2
f 60/70/9 59/69/9 61/71/9 62/72/9 
s 1
f 62/72/9 61/71/9 63/73/9 64/74/9 
s 2
f 64/75/9 63/76/9 65/77/10 66/78/10 
f 66/78/10 65/77/10 67/79/10 68/80/10 
s 1
f 2/2/1 35/41/1 38/44/2 3/3/2 
s 2
f 3/6/2 38/45/2 40/48/3 5/7/3 
s 1
f 5/7/3 40/48/3 42/50/4 7/9/4 
s 2
f 7/9/4 42/50/4 44/52/5 9/11/5 
s 1
f 9/11/5 44/52/5 46/54/6 11/13/6 
s 2
f 11/13/6 46/54/6 48/56/6 13/15/6 
s 1
f 13/15/6 48/56/6 50/58/5 15/17/5 
s 2
f 15/17/5 50/58/5 52/60/2 17/19/2 
s 1
f 17/22/2 52/61/2 54/64/11 19/23/7 
s 2
f 22/26/9 55/65/9 58/68/9 23/27/9 
s 1
f 23/27/9 58/68/9 60/70/9 25/29/9 
s 2
f 25/29/9 60/70/9 62/72/9 27/31/9 
s 1
f 27/31/9 62/72/9 64/74/9 29/33/9 
s 2
f 29/36/9 64/75/9 66/78/10 31/37/10 
f 31/37/10 66/78/10 68/80/10 33/39/10 
s 1
f 19/23/7 69/81/12 70/82/13 20/24/8 
f 53/63/8 71/83/8 72/84/14 54/64/11 
f 69/81/12 22/85/9 21/86/9 70/82/13 
f 71/83/8 56/87/9 55/88/9 72/84/14 
f 72/84/14 55/88/9 22/85/9 69/81/12 
s off
f 54/89/11 72/90/14 73/91/15 74/92/16 
f 69/93/12 19/94/7 75/95/17 76/96/18 
f 19/92/7 54/95/11 74/97/16 75/98/17 
f 72/99/14 69/100/12 76/96/18 73/91/15 
f 74/92/16 73/91/15 77/101/7 78/102/12 
f 76/96/18 75/95/17 79/103/14 80/104/11 
f 75/95/17 74/92/16 78/102/12 79/103/14 
f 73/91/15 76/96/18 80/104/11 77/101/7 
f 78/105/12 77/106/7 81/102/19 82/101/20 
f 80/104/11 79/103/14 83/107/21 84/108/22 
f 79/109/14 78/110/12 82/103/20 83/102/21 
f 77/111/7 80/112/11 84/101/22 81/104/19 
# 62 polygons

